<?xml version="1.0" encoding="UTF-8"?>
<svg xmlns="http://www.w3.org/2000/svg" version="1.1" xmlns:xlink="http://www.w3.org/1999/xlink" viewBox="0 0 4096 1801">
  <defs>
    <style>
      .cls-1 {
        fill: url(#linear-gradient-15);
      }

      .cls-2 {
        fill: url(#linear-gradient-13);
      }

      .cls-3 {
        fill: #de4a1f;
      }

      .cls-4 {
        fill: #80786b;
      }

      .cls-5 {
        fill: url(#linear-gradient-2);
      }

      .cls-6 {
        fill: #de7e62;
      }

      .cls-7 {
        fill: #882b0c;
      }

      .cls-8 {
        fill: url(#linear-gradient-10);
      }

      .cls-9 {
        fill: url(#linear-gradient-12);
      }

      .cls-10 {
        stroke: #fff;
        stroke-miterlimit: 10;
      }

      .cls-10, .cls-11 {
        fill: #fff;
      }

      .cls-12 {
        fill: #e5e2db;
      }

      .cls-13 {
        fill: #eb9b85;
      }

      .cls-14 {
        fill: url(#linear-gradient-4);
      }

      .cls-15 {
        fill-opacity: .3;
      }

      .cls-15, .cls-16, .cls-17, .cls-18, .cls-19, .cls-20, .cls-21 {
        fill: #f3f2ef;
      }

      .cls-16 {
        fill-opacity: 0;
      }

      .cls-22 {
        fill: #c5baa9;
      }

      .cls-23 {
        fill: url(#linear-gradient-3);
      }

      .cls-24 {
        fill: url(#linear-gradient-5);
      }

      .cls-25 {
        fill: url(#linear-gradient-22);
      }

      .cls-26 {
        fill: url(#linear-gradient-24);
      }

      .cls-27 {
        fill: #bd421a;
      }

      .cls-17 {
        fill-opacity: 0;
      }

      .cls-28 {
        fill: #a19989;
      }

      .cls-29 {
        fill: url(#linear-gradient-8);
      }

      .cls-30 {
        fill: #2c2c2c;
        fill-opacity: 0;
      }

      .cls-31 {
        fill: url(#linear-gradient-14);
      }

      .cls-32 {
        fill: url(#linear-gradient-20);
      }

      .cls-33 {
        fill: url(#linear-gradient-17);
      }

      .cls-34 {
        fill: url(#linear-gradient-7);
      }

      .cls-35 {
        fill: url(#linear-gradient-9);
      }

      .cls-36 {
        fill: url(#linear-gradient-11);
      }

      .cls-37 {
        fill: url(#linear-gradient-19);
      }

      .cls-18 {
        fill-opacity: .1;
      }

      .cls-38 {
        fill: url(#linear-gradient-6);
      }

      .cls-39 {
        display: none;
      }

      .cls-19 {
        fill-opacity: .2;
      }

      .cls-40 {
        fill: url(#linear-gradient-21);
      }

      .cls-41 {
        fill: #e6aea0;
      }

      .cls-42 {
        fill: #d94517;
      }

      .cls-20 {
        fill-opacity: .1;
      }

      .cls-43 {
        fill: url(#linear-gradient-16);
      }

      .cls-44 {
        fill: url(#linear-gradient);
      }

      .cls-21 {
        fill-opacity: 0;
      }

      .cls-45 {
        fill: url(#linear-gradient-23);
      }

      .cls-46 {
        fill: url(#linear-gradient-18);
      }
    </style>
    <linearGradient id="linear-gradient" x1="272.9" y1="285.2" x2="562.4" y2="373" gradientTransform="translate(0 1802) scale(1 -1)" gradientUnits="userSpaceOnUse">
      <stop offset="0" stop-color="#736c61"/>
      <stop offset="1" stop-color="#a49b8c"/>
    </linearGradient>
    <linearGradient id="linear-gradient-2" x1="539.6" y1="806.6" x2="580.6" y2="851.1" gradientTransform="translate(0 1802) scale(1 -1)" gradientUnits="userSpaceOnUse">
      <stop offset="0" stop-color="#918776"/>
      <stop offset="1" stop-color="#777168"/>
    </linearGradient>
    <linearGradient id="linear-gradient-3" x1="3224.9" y1="572.5" x2="3472.8" y2="593.4" gradientTransform="translate(0 1802) scale(1 -1)" gradientUnits="userSpaceOnUse">
      <stop offset="0" stop-color="#6f685f"/>
      <stop offset="1" stop-color="#ada493"/>
    </linearGradient>
    <linearGradient id="linear-gradient-4" x1="2406.4" y1="1134" x2="2446.5" y2="1214.7" gradientTransform="translate(0 1802) scale(1 -1)" gradientUnits="userSpaceOnUse">
      <stop offset="0" stop-color="#83796b"/>
      <stop offset="1" stop-color="#a9a192"/>
    </linearGradient>
    <linearGradient id="linear-gradient-5" x1="1243.1" y1="672.3" x2="1559.2" y2="691.6" gradientTransform="translate(0 1802) scale(1 -1)" gradientUnits="userSpaceOnUse">
      <stop offset="0" stop-color="#9c9484"/>
      <stop offset="1" stop-color="#cbc1ae"/>
    </linearGradient>
    <linearGradient id="linear-gradient-6" x1="1178.1" y1="634.5" x2="1451.4" y2="709.3" gradientTransform="translate(0 1802) scale(1 -1)" gradientUnits="userSpaceOnUse">
      <stop offset="0" stop-color="#797166"/>
      <stop offset="1" stop-color="#9d9584"/>
    </linearGradient>
    <linearGradient id="linear-gradient-7" x1="1408.6" y1="709.8" x2="1286" y2="712.2" gradientTransform="translate(0 1802) scale(1 -1)" gradientUnits="userSpaceOnUse">
      <stop offset="0" stop-color="#a49c89"/>
      <stop offset="1" stop-color="#d4c6b5"/>
    </linearGradient>
    <linearGradient id="linear-gradient-8" x1="1406.5" y1="685.1" x2="1266.6" y2="689.3" gradientTransform="translate(0 1802) scale(1 -1)" gradientUnits="userSpaceOnUse">
      <stop offset="0" stop-color="#d2c6b3"/>
      <stop offset="1" stop-color="#eeebe6"/>
    </linearGradient>
    <linearGradient id="linear-gradient-9" x1="1363.7" y1="731" x2="1545.1" y2="743.7" gradientTransform="translate(0 1802) scale(1 -1)" gradientUnits="userSpaceOnUse">
      <stop offset="0" stop-color="#6c655b"/>
      <stop offset="1" stop-color="#a7a18f"/>
    </linearGradient>
    <linearGradient id="linear-gradient-10" x1="1971.7" y1="671.4" x2="2222.6" y2="834.5" gradientTransform="translate(0 1802) scale(1 -1)" gradientUnits="userSpaceOnUse">
      <stop offset="0" stop-color="#766e64"/>
      <stop offset="1" stop-color="#a09988"/>
    </linearGradient>
    <linearGradient id="linear-gradient-11" x1="2143" y1="952.6" x2="2121.3" y2="867.6" gradientTransform="translate(0 1802) scale(1 -1)" gradientUnits="userSpaceOnUse">
      <stop offset="0" stop-color="#aea491"/>
      <stop offset="1" stop-color="#d5cbba"/>
    </linearGradient>
    <linearGradient id="linear-gradient-12" x1="2867.3" y1="642.6" x2="3174.9" y2="706.5" gradientTransform="translate(0 1802) scale(1 -1)" gradientUnits="userSpaceOnUse">
      <stop offset="0" stop-color="#787165"/>
      <stop offset="1" stop-color="#9d9484"/>
    </linearGradient>
    <linearGradient id="linear-gradient-13" x1="3058.8" y1="830" x2="3142.4" y2="870.2" gradientTransform="translate(0 1802) scale(1 -1)" gradientUnits="userSpaceOnUse">
      <stop offset="0" stop-color="#756d60"/>
      <stop offset="1" stop-color="#9a9286"/>
    </linearGradient>
    <linearGradient id="linear-gradient-14" x1="2278.5" y1="964.2" x2="2565.7" y2="481.9" gradientTransform="translate(0 1802) scale(1 -1)" gradientUnits="userSpaceOnUse">
      <stop offset="0" stop-color="#aca291"/>
      <stop offset="1" stop-color="#d5cab8"/>
    </linearGradient>
    <linearGradient id="linear-gradient-15" x1="2295.1" y1="653.7" x2="2485" y2="643.9" gradientTransform="translate(0 1802) scale(1 -1)" gradientUnits="userSpaceOnUse">
      <stop offset="0" stop-color="#766f64"/>
      <stop offset="1" stop-color="#999285"/>
    </linearGradient>
    <linearGradient id="linear-gradient-16" x1="2901.7" y1="1202.4" x2="2933.3" y2="1579.2" gradientTransform="translate(0 1802) scale(1 -1)" gradientUnits="userSpaceOnUse">
      <stop offset="0" stop-color="#bdb2a1"/>
      <stop offset="1" stop-color="#ece1d2"/>
    </linearGradient>
    <linearGradient id="linear-gradient-17" x1="1861.9" y1="696.7" x2="1649.3" y2="688.1" gradientTransform="translate(0 1802) scale(1 -1)" gradientUnits="userSpaceOnUse">
      <stop offset="0" stop-color="#b1a794"/>
      <stop offset="1" stop-color="#d0c8b9"/>
    </linearGradient>
    <linearGradient id="linear-gradient-18" x1="1558.8" y1="676.6" x2="1818.2" y2="698.3" gradientTransform="translate(0 1802) scale(1 -1)" gradientUnits="userSpaceOnUse">
      <stop offset="0" stop-color="#777164"/>
      <stop offset="1" stop-color="#9d9485"/>
    </linearGradient>
    <linearGradient id="linear-gradient-19" x1="3527.7" y1="830.2" x2="3728.2" y2="769.5" gradientTransform="translate(0 1802) scale(1 -1)" gradientUnits="userSpaceOnUse">
      <stop offset="0" stop-color="#80786b"/>
      <stop offset="1" stop-color="#a49d8d"/>
    </linearGradient>
    <linearGradient id="linear-gradient-20" x1="3608" y1="840.4" x2="3685.4" y2="799.8" gradientTransform="translate(0 1802) scale(1 -1)" gradientUnits="userSpaceOnUse">
      <stop offset="0" stop-color="#bfb39c"/>
      <stop offset="1" stop-color="#dcd6ca"/>
    </linearGradient>
    <linearGradient id="linear-gradient-21" x1="1761.9" y1="239.4" x2="1841.4" y2="359.6" gradientTransform="translate(0 1802) scale(1 -1)" gradientUnits="userSpaceOnUse">
      <stop offset="0" stop-color="#8b2e0c"/>
      <stop offset="1" stop-color="#c74216"/>
    </linearGradient>
    <linearGradient id="linear-gradient-22" x1="1946.2" y1="276.9" x2="2159.6" y2="283.3" gradientTransform="translate(0 1802) scale(1 -1)" gradientUnits="userSpaceOnUse">
      <stop offset="0" stop-color="#79260a"/>
      <stop offset="1" stop-color="#ef4f1d"/>
    </linearGradient>
    <linearGradient id="linear-gradient-23" x1="1539.3" y1="294.1" x2="1514.4" y2="366.8" gradientTransform="translate(0 1802) scale(1 -1)" gradientUnits="userSpaceOnUse">
      <stop offset="0" stop-color="#eb6529"/>
      <stop offset="1" stop-color="#b42b0b"/>
    </linearGradient>
    <linearGradient id="linear-gradient-24" x1="2397.7" y1="327.1" x2="2551.8" y2="268.2" gradientTransform="translate(0 1802) scale(1 -1)" gradientUnits="userSpaceOnUse">
      <stop offset="0" stop-color="#93310b"/>
      <stop offset="1" stop-color="#ce491f"/>
    </linearGradient>
  </defs>
  <!-- Generator: Adobe Illustrator 28.6.0, SVG Export Plug-In . SVG Version: 1.2.0 Build 709)  -->
  <g>
    <g id="Layer_1">
      <g id="Logo_x5F_Black" class="cls-39">
        <path d="M2262.2,323.2c-52.5-46.7-59.1-89.1-40.8-155.6,1.9-6.9,3.4-15.4,9.5-20,2.9-3.4,13.1-.2,14.3,3.2,33.3,95.6,128.4,142.9,213.4,184.6,19.6,9.6,46,33,58.5,53.3,9,14.7,17.2,33.6,19.3,51.5,1.7,11.3,3.9,24.9,9.9,34.8,13.7,22.8,38.7,37.3,51.9,60.4,9.4,16.1,7.3,38,7.5,56.2,0,1.3-3.8,10.9-4.6,13.7,3.4,1.7,317.6-1,358.3,2.4l.4-1.2c-2.6-3-6.7-8.4-7.1-12.5-2.3-23.8-3.3-55.5,13-75.1,14.3-17.2,33.6-28,44.1-48.4,5.3-11,8.5-24.3,10.6-36.3,10.1-57.3,57.6-98,109.8-118.1,19.5-7.5,35.6-20.3,53.8-30.8,48.7-28.2,93.9-64.5,118.4-116.6,3.9-8.2,5.7-19,10.5-26.8,26.6-16.3,30.2,77.6,29,90.3-1.3,13.6-3.2,22.9-6.3,35.8-4.9,8.4-6.7,13.5-13,21.7-19.6,25.6-48.2,43.6-75.5,59.8-2,1.1-21.9,11.7-21.7,11.6,7.1.5,42.5-17.3,52-21.8,5.6-2.7,8.8-4.1,13.8-7.7l1-.5c21.4-10.2,37.1-25.3,55.8-39.2,2.4-1.8,5.9-2.1,8.8-1.4,2.4,1.5,4.6,4.2,4.7,7.1,2.5,67.4-21.3,106-81.8,133.3-15.4,5.9-28.4,10.7-44.6,14.5-9.4.7-20.3,1.2-29.6,2.7,12.5,1.1,21,1.6,33.8.5,13.8-2,28.2-6.1,41.5-9.9,20-6.5,39.2-14.9,58.2-24.5,2.3-1.1,8.2-.8,9,2.6.6,11.5-6.7,23.1-11.9,32.8-14.6,27.1-30,40.5-55.1,56.6-29.8,12.8-51.6,17.7-84.6,14.6-10.2-1.8-20.9-4.2-30.9-5.9,18.9,11,38.4,15.3,60.2,13.9,18.5,1.3,38.9-6.9,56.9-9.3,2.9-.4,4.3,1.7,6.1,3.6-19.6,38-67.7,54.2-108,55.2-15.7-1.2-26.2-2.1-41.6-7-6.2-2-16.4-6.3-21.9-7.8,12.1,11.8,21.3,17,37.5,22.5,6.6,2,24.2,5.7,28.1,7.4l-2.1,3.1c1.7,1.9,1.3,1.3,4,2.4l.6,1.7c-4.2,4.9-21.9,9.5-28.5,10.8-22.4,4.6-49.7,4.2-70.3-6.8-12.7-7.4-20.6-15.1-31.6-24.7-.5,6.7,6.1,14.1,10.3,19,2.6,2.9,5.4,5.7,8.4,8.2,2.8,2.4,7.6,5.7,8.4,8.9-1.3,3.7-1.5,2.6-.6,5.7,2.5,2.2,5.4,3.9,5.7,6.5-7.9,3.1-36.5-3.4-45.1-7.6-20-9.9-32.3-19.4-43-38.5-6.5,12.3-11.3,22.4-5.7,36.8,8.4,20,11.7,40.1,1.1,60.4-9,17.2-37,22.5-52.5,31.4-26.9,15.5-60.1,47.9-48.5,82,11.5,33.7,11,48.4-19.2,70.3l-5.9,6.5c-2.8,15.7-3.5,30.7-4.9,46.6-.4,3.8-2.5,17.1-2.4,19.8-3.1,21.5-3.8,47.4-7.7,68.9-1.8,34.6-4.2,68-8.4,102.4-1.4,11.9-.8,22.4-3.4,34.5-3.6,23.1-6.2,56.2-8.5,80-.8,18.3-4.6,45.5-3.7,61.7l.8.8c6.8,6.8,14.4,12.1,21.1,18.7,15.2,15.1,23,37.3,23.1,58.5.2,24.6-9.5,43.8-27,60.7-6.8,6.6-27.6,24.1-36,26.7-14.1,3.4-30.4,4.2-44.4-.2-19.2-7.5-35.5-17.6-49.3-33.2-15.3-17-23.1-39.5-21.7-62.4,1.1-15.2,8.7-35,20.4-45.2,4.8-5.3,13.2-11.4,18.8-16.9,4-2.8,6.9-4.5,6.6-9.9-.8-14.4-2.7-28.8-4.3-43.1-3.7-31.5-7-63-10-94.6-.8-15.3-4.5-35.9-5.5-51.9-.6-8.9-2.2-30.8-3.6-38.1-2.7-24.3-5.2-52.3-7.2-76.6l-.6-8.7c-4.1-29.4.3-48.9-7.8-79.1-.5-5.4-2.1-13.5-3-19.1-11.6-13.2-32.7-22.5-37.7-41.4-4.6-17.5,7.4-35.5,15.5-49.9-13.3-25.1-36.5-53.5-60.7-68.9-19.4-12.4-37.2-11.8-50.8-35.6-19.6-34.2,8.8-51.8-9.1-88.6-6.9,12.1-16.5,22.6-28,30.5-13.7,9.4-41.6,17.4-56.9,14.5l.2-2.1c3.4-4.6,2.4-4.1-.3-8.9,15.1-14.5,20.3-13.6,29.3-35.1-13.7,13.8-23.4,19-40,28-25.1,7.4-53.6,5.2-78.8-1.9-11-3.1-3.9-6-7.7-13.5,1.1-1,32.1-10.1,37.4-12.3,13.4-5.7,24.7-14.2,35.1-24.3-9.7,5-18.6,9.8-28.8,13.8-30.8,12.7-68.7,9.4-98.9-3.1-13.3-5.5-56.3-31.4-48.8-48.6,4.6-2.6,18.4,2.7,24.9,4.4,17,4.4,41.1,6,58.4,3.1,6.1.4,16.3-2.9,22.2-4.7,5.6-1.2,14.1-6,19-8.9l-22.8,5.7c-23.3,3.7-42.4,3-65.2-.6-31-6.2-57.7-26.4-76.9-51-6.5-8.4-31.8-46.5-18.5-55.1,2.2-.5,3.9-.4,5.9.7,17.6,9.4,33.8,17.2,52.5,24.4,8.9,2.8,16.4,5.2,25.5,7.4,7.2,1.9,11.6,2.7,18.9,3.7,15.1,1.4,23.5,2.1,38.2-1.1-10.8-.2-21.6-1.5-31.9-1.6-5.9-1.7-12.6-3.9-18.6-4.8-13.6-4.9-31.5-13.6-43.4-17.6-28.3-20.1-46.7-31.8-57.7-68.5-4.8-18.6-8.7-43.9-4.7-62.7,1.7-7.9,24.8,10.9,27.4,12.8,19.9,19.3,77.5,47.7,103.8,55.1-18.3-10.8-37.1-20.4-54.3-32.9-3.6-2.6-7.2-5.1-11-7.4Z"/>
        <path d="M3707.8,829.9c.6-4.9,1-13.3,5.2-16.1,11.1-7.4,45.9-3.3,59-1.5,46.4,6.4,93.7,1.4,140-3.3,5.2-.5,23.2-2.4,27.7-4.4,9.5-5.1,25.2-12.5,33.2-.2,11.8,18.3-11,41.4-20.6,56.1-25.1,38.6-46.4,80.3-70.3,119.4-33.8,55-72.8,110.4-119.3,155.4-7,6.7-17.9,10.8-25.8,16.1,127.2,3,133.7,31.9,163.3,149,16.4,64.8,44.8,171.5,97.8,214.8,11.4,9.2,24.7,15.9,38.8,19.7l-1.1,16.6c-5,5.5-10.6,7.2-16.1,12.4-24.7,23.3-45.5,43.2-72.3,64.8-19,15.3-45.4,46.5-70.4,53.4-17,1.4-50-26-62.5-37.5-46-42.3-69.8-103.8-79.8-164.3-1.6-9.8-2.8-20-4.2-29.8-5.8-25.2-6.5-50.5-11.6-75.7-7.5-36.9-26.4-74.6-50.8-103.3-7.3-8.1-20.1-18.8-31.5-18.4-7.6.2-22.3,13-26.7,18.6-16.7,21.2-20.4,50.3-23.2,76.3-1.2,6.1-4.8,12.4-5.3,18.6-1.5,17.7.2,36.2-.4,53.8-2,63.8-.4,135.3,40.1,188.3,8.8,11.6,20.5,16.8,26.1,32-1.8,4.9-2.9,9.8-8.1,12.1-12.2,5.3-87.4,1.6-104.2,0-2.7-.2-1.6.4-3.3-1.5l.7-4.2c-34.1-1.9-80.8-3.8-115,.4-3.9.5-1.6,1.6-3.7,4.8-9.8,2.8-22.9,2-33.1,2.3-22.3.6-20.1-3.2-20.2-22.1,22.3-19.8,30.8-40.2,38.7-68.8,4.4-15.9,6.6-37.5,8.5-53.8,1.6-30,.9-64.6.9-95v-159c-.1,0,.1-179.9.1-179.9l-.2-76.4c-.2-38.9-1.1-70.4-11.6-108.2-5-18.2-10-28.8-22.5-43.4-5.7-6.7-16.8-18.9-13.4-28.4,5.7-14.7,30.5-10,42.5-6.7,31.3,8.7,61.9,3,93.7,5.5,8.7.7,18.9,6.7,28.2,6.3,5.9.1,11.8-5.9,17.4-6.4,17.2-1.8,27.8,3.9,43.5-6.1,6.6-4.2,32.4-4.4,39.5-.5,6.1,3.3,7.4,5.8,10,12.4-5.9,23.6-14.4,39.6-23.2,61.3-2.9,11.9-9.1,28.1-11.5,39.7-7,35-12.6,69.7-13.2,105.4-.2,11.6-6,24.6-6.3,36-1.1,43.4.1,86.8-.7,130.3,12-12.5,25.8-25.1,38.2-37.8,12.4-12.6,17.3-23,26.2-33.2,45-51.8,78.9-99.7,101.7-165.2,3.7-11.2,3.7-16.6,5-27.5,2.8-23.5,2.6-29.4-5-51.2-11.9-29-20.5-32-39-51.7Z"/>
        <path d="M344.6,752.3c5.2-.6,17.4-.4,22.4,2.3,58.5,31.7,118.9,61.3,185.5,70,9.8,1.3,33.2-8.7,42.4-12.5,10.9-4.5,31.5-19.5,43-12.1,3.8,5.3,2.1,13.4,1.5,19.6-1.5,14.7-5.1,29.7-8.9,43.9-15.5,58.4-44.8,114.3-92.8,152.6-10.1,8.1-25.6,18.4-39.1,17.8-21.9-1-95.5-62.8-114.7-78.6-15.5-12.7-31.7-28.7-49.2-38.5-5.2-3-10.9-4.9-17-5.4-11.9-1.1-22.1,3.1-31.1,10.6-10.6,8.9-20.8,23.2-21.8,37.4-4.8,68.5,136.7,168.2,187.7,205.7,21.7,15.9,43.3,32.1,64.8,48.3,53.7,41.2,133.7,106.7,126.6,181.9-10.4,109.6-141.4,178.3-216.6,243.8-32.8,28.6-47.7,39.5-90.5,36.8-21.7-4.9-48.9-17.4-67.8-28.9-43.5-26.3-176.9-129-199.8-164.4-.6-4-1.8-14.8.7-18,18.1-23.7,43.6-42.9,65.4-62.9,28.9-26.5,56.1-51,87.3-74.8,4.9-.3,16.3-1.4,19.1,2.4,7.2,9.9,11.1,26.6,17.5,37.5,31.8,54.2,79.5,103,135,132.7,15.7,8.4,38.4,17.3,55.7,11,10.5-3.8,16.9-11.6,21.4-21.4,2.6-5.8,6.1-15.5,5.4-21.6-7.7-65.4-103.9-134.3-151.2-169.8-26.8-19.9-53.6-39.7-80.6-59.4-50.7-37.3-105.6-81.2-128.9-141.8-10.4-23.4-7.6-46.2-8.7-70.2-1.8-40.6,18.5-63.8,45.3-92.1,24.6-23.7,50.2-52.5,75.1-75.3,27.6-25.2,85.5-95.4,117-106.8Z"/>
        <path d="M658.6,1003.8c3.3-41.9,1.6-51.8,35.6-80.5,22.5-19,46.8-36.8,69.5-55.5l44.8-37.1c45.6-37.6,53.3-46.1,106.9-9.8,122.3,83,162.3,200.2,147.7,344.5-9.1,90-39.8,148.2-110.9,206.4-13.6,11.4-71.4,56.5-85.5,62.6-6.3,2.7-13.1,3.8-19.9,3.1-38.5-3.5-96.3-50.8-121.4-81.5-39.5-48.5-63-108.1-67-170.6-1.9-16.2-2.2-43.1-2.5-59.9-.7-38.5-1.5-83.4,2.6-121.6ZM896.5,1319.7c24.9-17.2,29.3-43.7,34.2-72.3,1.1-7.9.7-15.3,3.2-22.9,4.5-13.5,2.5-34.3,2.7-48.7,1.1-65.3-5.4-132.4-43.7-187.6-17.9-25.3-45.1-54.1-75.4-63.2-18.7-5.7-28.9,34.5-30.2,46.7-6.3,39.9-7,122.4,0,161,2,19.4,10,52.2,16.2,70.9,16.8,50.9,44.1,91.5,93,116Z"/>
        <path d="M1242.5,947.5c-3.1,47,0,113.2,0,161.9l.2,81.8c.1,35.7-4.4,85.2,29.2,107.3,21.9,14.4,59,2.9,72.8-18.7,5.3-9.5,3.6-66.4,3.6-80.9v-218.4c-.1-35.9,4.1-83.2-12.3-116.3-3.9-7.9-21.5-20.8-15.4-32.7,9.5-14.2,46.5-3.2,60.6-3.5,9.3-.2,17.2-1.4,25.4-2,15.8-1.2,31.7-2.3,47.6-3.3,13-.9,28.3-6.1,39.4,0,5.5,8.1-5.5,29.7-8.8,38.4-14.4,38.3-11.9,80.9-11.7,121.3l.7,111.8c0,34.6,0,69.2-.4,103.8-.2,30.3-1.3,61.4,2.4,91.5,3.4,27.5,10.2,51.7,34.1,67.6-.7,5.5-.8,8.8-.8,14.3-26.6,18.5-54.6,37.8-81.5,55.9-4.5,3-16.9.8-18.9-5.2-12.1-25.5-34.2-42.4-52.2-63.5-15.8,8.6-30.6,19-44,30.9-21.3,18.8-40.2,48.4-72,36.8-51.7-18.8-107.1-63.9-122.8-118-1.3-11.6-.2-30.2-.1-42.2.2-25.9,1.5-52.2,1.2-78.1,3.1-58.9-.4-121.3,0-180.3.2-22.4.1-48-1.4-70.2,0-13.7-1.9-29.9-5.6-43.1-2.6-20.7-36.5-48.5-26.4-58.9,9.4-9.7,62-2.4,79.9-1.4,21.5,1.3,85-9.2,101.6-4.1,12,3.7-16.1,51.2-17.8,65.9-4.7,20.7-5.8,29.9-6.6,51.5Z"/>
        <path d="M2051.4,798.3c20.2-.3,35.2,12.6,52.7,21.2,26.2,12.9,53.7,28.3,82.2,35.4,7,1.7,23.5-2.5,31.2,1,14,6,2.8,27-.7,36.7-15.6,34-44.4,82.2-79,98.5-28.8,13.6-86.6-66-113.7-76.4-14.6-5.6-17.7,4.5-22.1,14.4,6.9,20.6,21.8,39.9,35.2,56.8,23,28.9,47.8,55.4,74.5,80.8,41.6,39.6,92.4,78,118.3,130.7,8.7,17.7,13.7,38.2,7.1,57.5-2.8,8-7.2,15.2-12.2,21.9-22.1,29.4-130.1,141.2-157.9,154.1-15.8,7.3-40.4-6.6-55.4-12.3-12.1-5.1-24-10.9-35.4-17.4-22.1-12.7-42.3-27.3-66.8-34.9-8.1-3.1-12.8-3.3-21.2-1.6-7.2,1.4-23,5.8-26.8-2.7,0-6.1,2.9-13,6.3-18.1,28.3-42.7,57.8-85.8,90.1-125.6,4.8-6,17.4-7.1,22.5-2.6,8.8,7.7,16.2,20.5,23,29.9,18.1,24.8,39.6,46.9,65.8,63.2,11.9,7.4,36.7,17.5,44.7.2,9-16.4-1.7-34.1-10.4-48.3-33-53.8-84.4-89.4-131.7-129.3-44.7-37.7-103.3-87-100-151.4.5-10-.7-15.1,4.6-24.5,5.5-9.7,11.7-17.8,19.7-25.7,23.3-22.8,49.2-42.9,73.6-64.7,23.1-20.3,46-41.3,70.1-60.2,4-3.2,7-4.8,11.9-6.3Z"/>
        <path d="M2934.7,1074.8c3.3-12.6,4.3-35.1,6.9-46.1,5.5-23.6,14.7-83.9,25.3-102,6.2-10.5,59.4-38.5,73.1-47.3,19.8-12.7,41.9-25.8,61.5-40.2,15.3-10.9,30.2-22.5,45.8-33.1,8.7-5.9,21-4.7,30.9-2.7,25.4,5.3,49.1,17.4,74.7,22.2,7.1,1.3,17.1,4.5,24.2,4.6,16.2.4,30.9-8.8,46.2-12.2,3.6-.8,7.5-1,10.5,1.2,9.1,22.7-40.4,124.3-49.9,150.6-8.6,23.9-35,19.6-55.4,13.3-47.7-14.8-92.2-39.4-117-84.7-19.7,32.2-27.8,40.4-38.4,78.2-8.6,38.8-9.7,105.3-1.1,143.9.1,8.3,4.2,21.4,6.6,29.4,22.2,71.4,73.9,145.8,157.8,139.3,12.4-1,24.7-4.5,36.5-8.5,13.5-4.1,46.1-21.6,58.4-19.1,11.1,12.8-24.6,56.6-33.2,69.2-19.8,28.9-36,61.7-58.9,87.7-11.2,12-44.8,9.8-59.7,8.4-65.8-6-130.8-33.7-173-86.4-36.9-46.2-62.3-104.3-71-163.2-.4-8.5-2-17.7-2.3-26.6-.8-24.9-.8-51.1,1.5-75.9Z"/>
        <path class="cls-3" d="M2679.4,326.6c1.4-25.4-5.5-28.4-14.4-51.8-7-18.5-10.1-38.2-9.2-57.9,3.2-66.5,75-119.5,128-149.2,4.8-2.7,23.1-4.4,27.5.7,1.6,11.2-15,37.6-19.4,50.7-16.2,45.1,25.5,71,52.7,97,23,22.1,41.5,62,40.4,94.1-.4,13.6.4,27.2-4,40.2-5.9,22.6-16,38.4-30.7,56.3-3.7,4.5-15.5,15.5-16.7,19.7,14.7-10,40.2-31,47.9-47.1,11.5-17,27.7-43.3,24.6-65.2-1.2-8.6-6.2-18.6-3.5-27,8.7-8.6,25.7,3.2,32.4,10,68,69.2,60.3,174.8-12.9,236.8-14.1,12-84.6,59.8-100.3,48.2-11-18.4,52.5-67.6,49.9-84.5l-1.3-.6c-22.3,14.9-46.9,21.6-65.3,38.9-17.6,16.6-7.8,48.2-35.7,50.5-17.6-8-47.6-61.5-49.6-82.1-.9-9.5,1.9-26.7.3-36,2.6-37.1,44.7-77.1,53.8-106.2,2.3-1.5,2.1-8.2,4.4-12.7,4.8-11.9,3.9-30.4,1.3-42.8-1.8-8.7-9.5-33.9-16.9-38.7l-.8,1.9,1.3-1.9h-.4c-2.8,4.6,3.6,31.1,4.2,40.4v1.1c-.3,5.7-3.3,28.3-3.1,30.9-2.7,4.9-3.8,9.3-5.7,14.5-8.1,21.3-23.2,40.9-38.2,57.8-17.7,19.9-34.1,38.4-24.7,66.9,1.2,3.8,9.4,26.1,11.3,27.8,7,23,42.9,59.5,39.2,80.5-4.8,6.6-12.9,2.1-19.7,0-8.8-4.8-17.7-11.2-26.5-16.1-49.8-28.7-91.9-57.2-119.1-111-29-57.4-14.5-137.4,38.4-177.4,3.2-2.4,15.6-1.8,19.7-.2,6.3,10.9-3.9,48.2,16.4,60.1,13.1,7.7,19.7-7.9,24.9-16.4Z"/>
        <path d="M2239.5,892.8c3.8-21.4,7.6-67.1,21.7-81.4,13.1-4,109.9,9.7,131.1,11.2,48.4,3.3,87-2.7,134.1-5,18-1,35.7-4.6,52.7-10.7,7.8-2.8,21.4-10.1,30-8,3.4.8,3.9,3,5.3,5.9.4,11.8.4,19.8-1,31.8-3,32.9-15.6,120.6-63.1,113.4-21.9-3.3-43.3-14.4-67.4-16.8,2.5,32.3,1.7,72,1.8,104.9v165.7c.1,24.5-.9,56.9.8,80.8,1.6,17.2,2.2,28,6.8,44.8,5,23.5,17.3,43.4,36.6,57.7.7,3.8,3.1,14.2.7,16.5-12.3,12-43.2.4-56.6-.3-39.6-2-79.4-1.2-119,.7-13.9.7-29.5,9.5-42.7,2.5-7.1-3.8,0-15.9,3.4-19.9,8.5-10,27.2-29.3,29.1-42.4,12.7-26.7,9-93.8,8.8-126.2v-127.5c0-22.4-.9-62,2.2-82.8,2.5-31.6,6.9-52.9,17.9-82.6-17.2-.4-38.1,2.5-55.3,5.3-15.9,2.9-28.9,10.7-42.3,19-9,5.5-33.1,30.2-39.3,11-1.5-20.6,2.8-46.7,3.9-67.5Z"/>
        <path d="M1698.7,1144.2c.1,44.5.6,92.3-19.1,133.2-2.6,5.4-11.9,14.2-12.4,19.6,3,.9,15.1-2.3,19.7-2.5,59-1.9,116-10,162.3-50.2,7.2-6.2,29.4-29.1,37.2-13.9,1.4,2.7-5,24.4-6.3,28-16.4,43.1-36.5,85.1-51.5,128.8-17.9,55.6-30.1,37.4-76.6,23.7-5.4-1.6-15.3-1.3-21.2-2.5-6.7-1.3-13.8-4.6-20.8-4.9-43.7-1.5-88.9-4.1-132,4.8-16.9,3.5-87.3,14-46.2-22.5,15-13.3,28.7-30,33.8-49.7,9.3-33.9,8.3-70.1,8.2-105l-.4-91,.2-131.6c0-28,0-56.3-1.2-84.3-1.1-22-5.4-43.9-21.7-60-7.4-7.7-32.7-18.5-18.1-31.4,9.9-8.1,23.2-10.1,34.8-13.9,15.9-5.2,24.3-11.1,41.7-8.7,24.9,3.5,42.7,22.3,67.6,24.9,16.1,1.7,30.3-3.6,46-6,9-1.4,17-1.1,26-.7-.4,7.2-.4,9.5.5,16.7-17.9,11.3-43.2,42.3-45.5,63.5-10,31.6-5.5,103.1-5.8,138.4-.2,27.9-1.1,69.8.5,97.1Z"/>
        <path d="M1659.8,1503.1c-6.5-6.4-15.6-10.6-17.1-19.2,1-3.7,0-2.3,2.8-4.4,16.4-1.1,40.2-.6,58.4-.9,43.4-.7,101.9-6.4,141.9,12.8,7.9,4.2,16.1,12.4,17.9,21.3,6.3,31.9-17.1,51.9-45.8,59.3,60.2,17.2,28.3,32.1,43.1,50.2,5.1,6.2,18.2,6.2,21.4,11.6l-2.4,2.6c-.4,2.2-.2,3.2.1,5.5-1.5,1.4-2.8,2.3-4.6,3.1-18.8,8.1-56.6,13.8-75.7,5.4-40.4-17.8-19.6-36.9-25.4-49.1-1.5-3.2-4.8-3.9-7.8-4.9l-1.2-.3c-9.6-2.7-16.9-3.3-26.9-3.8-.2,11.9-3.2,30.1,6.1,38.1,6.2,5,15.8,12,12.3,20.6-15.6,3-38.1,0-55,0-19.1.1-39.2,1.9-58,1.6l.4-12.9c7.4-5.6,19.4-11.5,19.7-22.2.2-10.5.4-22,0-32.5-1.1-26.3,1.2-56.2-4.2-82ZM1739.5,1560.8c11-1.2,21.4-3.4,31.1-9,6-4.1,12.7-9.5,14.2-17.1.8-4.5-.5-8.9-3.2-12.5-5.9-7.7-17-11.4-26.4-12.3-3.9-.4-7.8-.4-11.7-.5-1.9.9-2.9.8-3.5,3-2.4,8.6-.6,37.9-.5,48.4Z"/>
        <path d="M875,1479.4c14.1.2,28.2.3,42.4.2,12-.2,24.4-1,36.4,0,10.6,10,20.5,20.8,30.9,30.9,15.9,15.3,32.5,29.9,48.2,45.5-.2-12.1,1.8-28.5-2.1-39.9-4.6-13.4-17.9-20.8-29.8-26.7l2.8-9.4c21.3-1,42.7.5,64,.7,12.9.1,26-1.2,38.8-.3,2.6.2,5.7.3,7.8,1.9,1,.8.8,1.4.9,2.6-4.1,8.5-16,15-23.1,21-1.4,4.1-2.7,8.2-3.1,12.6-1.6,15.2-.8,31.4-.8,46.7.2,28.8.2,57.7,0,86.5-4.4.6-8.8.7-13.2,1-8.7.1-17.5.8-26.3.5-4.2-.1-7.7-.9-11.3-3.2-11.4-7.5-21.7-19.6-31.5-29.2-20.3-19.5-40.1-39.5-59.6-59.8-.6,18.8.6,41.5,1.3,60.5,6.9,7.9,17.7,12.1,23.5,19.3,1.5,1.8,1.1,3.1.9,5.4,0,.4,0,.8-.1,1.3l3.7,2.9-.2,1.1c-2.5,1.3-4.5,1.4-7.3,1.5-13.9.3-28.1-1.6-42-1.8-15.7-.3-40.5,4-54.6-.1l-.4-1.2c1.6-13.6,12.7-17,20.4-26.7l.9-1.1c.1-18.7,2.3-103.4-3.3-114-4.8-9.2-16.2-11.6-21.3-19.7-1.4-2.2-1.2-3.3-.5-5.6,2.4-2.4,4.4-2.7,7.6-3.2Z"/>
        <path d="M1975.8,1478.4c24.7-3,51.8,2,76.7,2.3,15.2.2,37-6.5,51.2-.7l.5,1.5-2,1.7c-.6,2.5-.3,2.6.9,4.9-2,3.2-7.4,5.2-10.6,7,18.1,38.8,33.6,104.4,62.9,134.2,6.4,6.5,12.9,7.3,18.3,12.1-.2.2-.5.5-.7.8-3.9,4.3,1.4,3.9,1.6,8.2-3.2,1.8-6.9,1.8-10.5,1.9-17.2.5-34.4-1.7-51.6-1.7-15.3,0-30.7,2.1-45.9,1.6-3.4-.1-7.2-.2-9.6-2.8-1.1-2.5-2-4.9-1.3-7.7.7-2.7,2.8-3.8,4.9-5.2.3-.2.6-.4.9-.6,1.6-.9,3.3-1.7,4.8-2.8,2-1.6,2.8-3.7,2.7-6.2-.1-4.1-1.9-8-4.9-10.8-2.1-2.1-4.8-3.8-7.7-4.4-9.4-2.1-38.3-1.9-48.7-1.6-5.8.2-13.1,1.6-17,6.4-1.6,2-2.4,4.1-2,6.7.7,4.8,3.5,8.3,7.4,11l6.5,4.5.8,11.8c-.5.3-.9.6-1.4.8-11.6,4-38-1-51.4-1.2-12.3-.2-24.7,2.5-36.9,2.1-3.1,0-5.7-.6-8.6-1.8l-.4-1.7,2.4-3.1c-.4-1.1-.8-1.9-1.6-2.9-.2-.3-.5-.6-.7-1,2.6-4.4,14.1-9,18.9-12.4,17.2-12.3,58.1-105.4,61.8-129.1l.2-1.7c-3.2-2.3-6.3-4.5-9.2-7.2-1.1-2.8-1.6-4.8-1.3-7.8.1-1.3-.5-1.9-1.1-3.1l1.5-2.2ZM2030.5,1580.6c6.4.1,12.8.5,19.1.4-3.8-9.5-7.6-18.9-10.9-28.5-2.7-7.6-4.8-16.9-8.5-24-.9-1.8-2.4-2.5-4.2-3.4-2.4,12.7-5.5,24.8-10.8,36.7-2.1,4.7-5.4,9.2-7.2,13.9-.7,2-.8,2.9.3,4.7,7.2,1,14.9.3,22.2.1Z"/>
        <path d="M3119.8,1622c1.2-19.7,2.5-94.7-2.9-110.3-4.1-11.9-15.9-20-18.8-31.5l.8-1c11.5-2.3,34.6.8,47.1.9,24,0,49.1,1.1,73-.2,23.8-1.2,38.5-3.6,62.3.3,10.4,11.2,12,21.9,14.2,36.9.5,3.5.8,7.5-1.5,10.4-8.2.9-37.7-8.1-47.4-10.1-17.4-3.4-32.7-5.7-50.7-4.6-.8,9.6-.6,25.9-.5,35.8,9.2.8,34.8.9,43.2-1.2,16.4-4,10.9-7.8,30-6.8-.4,10.3,1.4,40.9-1.2,48.4-1.9.9-4.6,1.6-6.5.9-23-8.2-38.9-9.7-63.1-10.9-1.7,1-3.9,1.8-4.2,3.9-1.1,9.6-2.1,26.5,2.5,35.3,1,2,4.9,2.2,6.9,2.5,34.1.1,58.7-9.8,88.7-23.2,3.5-1.6,8.3-.6,11.7,1.3,1.2,1.8,2,2.2,1.6,4.5-1.8,12-14.4,40.8-22.4,48.8-8.2,4.6-30.7,3.2-39.1,1.9-47.3-7-92.5.2-139.6-1.2-2.3,0-2.8-1.3-3.8-2.8-.5-9.8,12.1-17.3,18.5-26.7l.9-1.3Z"/>
        <path d="M1390.6,1478.5c29.1-1.8,62.1,1.9,92.2,1.7,18-.1,36-.6,54-1.3,7.9-.3,17.1-2.1,24.9-1.3,6.9.8,12.4,4.3,16.7,9.7,6.9,8.7,12.5,24.4,10.4,35.5-.2,1.4-.8,3.4-2.1,4-7.3,3.4-25.6-4.8-33.1-7.2-12.5-4-52.8-11.3-64.1-5.4-4.4,6.3-2,25.5-1.9,33.6,13.8.8,28.8,2,42.4.3,7.2-.9,22.6-8.5,27.1-7.1,1.6.5,2,.8,2.7,2.5,2.1,5,2.1,38,0,43.4-2.5,2.1-5.3,2.2-8.5,1.9-8.7-.9-17.6-4.7-26.1-6.9-12.6-3.2-25.6-2.6-38.5-2.2-.3,6.8,0,13.8,0,20.7v17.8c21.2,4.4,55.7-.9,75.9-9.6,8.6-3.7,18.4-10.3,27.6-11.6,2.7.7,3.7,1.2,5.7,3.2,1.8,4.1,1.1,7.4-.1,11.6-2.6,9-16.2,37.6-24.5,41.4-8.5,4-84.5-2-101.8-1.9-15.4.1-64.8,4.8-75.7.9l-.6-1.5c1.4-1.3,2.4-2.4,3.3-4.1-.3-.6-.8-1.3-1.1-1.9-1.7-4.5,11.3-11.8,13.8-16.6,2-3.7,3-7.8,3.4-12,1.3-13.6.7-97.8-2.7-108.8-2.9-9.3-15-13.2-16.9-21.2-.5-2.2-1.1-4.3-1.9-6.5-.1-.3-.2-.6-.4-.9Z"/>
        <path d="M2815.7,1478.3c14.9-.7,30.4,1.5,45.4,1.6,22.1.2,44.7-2.5,66.7.2,1.3,1.5,1.5,1.9,1.3,3.9-.6,5.9-5.6,10.3-10.1,13.4,5.7,15,14,29.1,20.5,43.8,6.3,14.1,9.8,31.2,18.8,43.8,2.5-9.6,5.8-19.1,9.4-28.3,3.2-8.3,23.9-49.7,22.5-55.1-1.6-6.2-13.2-8.1-14.8-15.7-.5-2.4.6-4,1.8-6,1.6-1.2,2.7-1.4,4.6-1.6,13.4-.9,27.5,1.2,40.9,1.5,17.4.4,35-1.1,52.3,1.3,1,1.2,1,.8.9,2.3-.4,8.2-17,16.8-22.6,22.6l-.9,1c-27.2,35.6-41.8,73.6-59.4,114.3-2.6,5.9-5.7,25.4-9.9,28.6-2.5,1.9-6.1,2.3-9.1,2.4-11.2.5-22.8-2.1-34.2-1.8-9.5.2-20,3.5-29.4,1.2-9.3-2.3-10.5-23.4-14.2-31.6-7.7-17.2-17.4-33.8-26-50.6-10.3-20.2-19.9-42.5-33.1-61.1-6.4-9-18.8-13.1-24.4-22,.8-2.3.9-4.4,1-6.7l2-1.7Z"/>
        <path d="M2296.4,1474.3c19.7-1.2,38.2,5.6,57.8,6.6,9.8.5,19.3-4.5,28.8-3.6,3,.3,4.9,1,6.7,3.3l-1.1,4.2c2.6,7.2-6.1,13.4-7,18.7-5.8,33.2-16.8,21.2-39.4,16.5-27.8-5.8-51.9-22.3-69.6,8-12,20.6-10.4,41.9,4,60.2,15.6,19.8,46.4,26.9,70.1,24.1,14-1.7,29.1-5.8,43.5-4.3l1.1,1.4c-1.2,20.9-10.7,16.9-25.2,29.2-6.2,5.3-19.8,13.6-28,14.4-56.2,5.5-135.8-6.2-148.7-72.8-11.9-73.2,47.2-96.1,107-106Z"/>
        <path d="M2618.1,1477.4c3.4-.2,7-.5,10.3.3,2.4.5,4.5,1.8,5.6,4,2.1,4.3-.5,11.4-2,15.6-18.4,50.9-48.2,8.8-66.1,17.2-4.4,7.3-2.3,93-1.8,108.1,5.1,6.5,12.2,13,15.3,20.8,1.1,2.9,1,4.7-.3,7.5-1.6.8-3,1.4-4.7,1.7-14.8,2.7-32.1-2-47.1-2.4-14.2-.4-28.4,3.8-42.7,3.2-4.2-.2-9-.7-12.5-3.2-2.7-9.5,9.9-16.9,13.2-25.1.1-.2.2-.5.3-.7,3-13.6,4.5-96.3.8-106.8-13-11.9-55.1,15.7-64.1,12.6-2-.7-2.3-1-3.1-3l3.7-3.3c0-.3-.3-1.6-.3-1.8,0-.3-.2-.6-.3-.9-1.2-5,8.9-35,12.3-39.8,2.1-3,7.4-3.1,10.8-3.2,14.5-.5,29.4,1,44,1.6,38.5,1.7,91.5,4.4,128.9-2.5Z"/>
        <path d="M1168,1477.3c17.4,0,34.8,1.5,52.2,2.2,20.3.8,40.7,1.2,61.1,1.2,9.2,0,18.3.2,27.5-.4,17.8-1.1,35.6-3.9,53.2-.3-2.1,10.8-4.9,23.9-10.4,33.4-13.4,23.1-44.6-3.9-62,1.2-2.7,7.2-1.8,93.4-.6,105.8.5,5.8,2.9,9.8,7.4,13.5,3.2,1.9,7.4,4.1,9.5,7.3,1.5,2.3,1.5,3.4.9,6.1-1.2,1.3-2.2,2.3-3.8,3-3.9,1.8-8.4,2.2-12.7,2.4-13.4.3-26.9-2.6-40.3-2.7-14.6-.1-35.1,6.6-48.8,1.6-2.6-1-2.9-1.1-4-3.6,1.3-7.7,9.8-14.5,15.1-19.9-.2-3.5-.3-6.5,1.2-9.7,5.7-12.3,3-86.3,3.1-104.8-13.7.9-33.3,2.7-45.3,9.5-6,3.4-12.7,9.1-20.1,6.4-1.3-.5-2.6-1-3.1-2.4-1.3-3.6,7.7-37.4,10-41.8,2.4-4.5,5.1-6.4,9.9-8Z"/>
        <path d="M716.1,1479.2c17.3-1.5,35.7.8,53.1.9,18.9.1,38.9-2.2,57.5.3,8.4,9-14.6,23.5-16.5,33.1-2.6,13.8-.3,40.3-.2,55.3,0,14.6-1.1,29.2-.6,43.7.5,18.6,7.3,15.9,17.7,26.9,1.8,1.9,2.6,3.8,2.4,6.5-.2,2.8-2.6,4.6-4.7,6-13.9,2.2-39.5-.6-55.3-.7-14.9-.2-29.9,1.1-44.8.8-2.7,0-6.3.2-8.6-1.4-1.5-3.7-.8-7.8-.6-11.8,5.1-2.2,9.2-4.6,12.5-9.3,2.6-3.7,4.1-7.9,4.8-12.3,1.5-8.6.7-18.1,1-26.9.8-28.3,1.9-55.6-2.4-83.7-4.5-5.8-11.4-10.4-14.8-16.8-2.1-3.8-1.6-6.6-.4-10.6Z"/>
        <path d="M2671.1,1479.2c13.6-1.7,28.2-.7,41.9-.6,22.3,0,44.5.3,66.8.7-.3,3.9-.3,7.7-.3,11.6-5.1,6-10.6,11.8-13.4,19.3-2.8,7.4-3.9,106.9-1.3,112.3.2.3.3.6.5.9,3.2,6.1,17,17.5,15.9,24-.5,2.8-2.1,3.7-4.4,5.1-14.7,1.1-29.8-1.2-44.6-1.3-16.4-.1-33,1.7-49.3.8-3.1-.2-7.8,0-10.1-2-2.7-11,15-20.2,17.5-34.6,2-11.5.4-24.2.5-35.9,0-18.4,1.4-37.7,0-56.1-.4-5.3-1.4-11-3.4-15.9-3.1-7.4-11.1-10-15.2-16.5-2.4-3.8-2.2-7.8-1.1-11.9Z"/>
      </g>
      <g id="Logo_x5F_White">
        <path class="cls-10" d="M2257.7,284.3c-52.5-46.7-59.1-89.1-40.8-155.6,1.9-6.9,3.4-15.4,9.5-20,2.9-3.4,13.1-.2,14.3,3.2,33.3,95.6,128.4,142.9,213.4,184.6,19.6,9.6,46,33,58.5,53.3,9,14.7,17.2,33.6,19.3,51.5,1.7,11.3,3.9,24.9,9.9,34.8,13.7,22.8,38.7,37.3,51.9,60.4,9.4,16.1,7.3,38,7.5,56.2,0,1.3-3.8,10.9-4.6,13.7,3.4,1.7,317.6-1,358.3,2.4l.4-1.2c-2.6-3-6.7-8.4-7.1-12.5-2.3-23.8-3.3-55.5,13-75.1,14.3-17.2,33.6-28,44.1-48.4,5.3-11,8.5-24.3,10.6-36.3,10.1-57.3,57.6-98,109.8-118.1,19.5-7.5,35.6-20.3,53.8-30.8,48.7-28.2,93.9-64.5,118.4-116.6,3.9-8.2,5.7-19,10.5-26.8,26.6-16.3,30.2,77.6,29,90.3-1.3,13.6-3.2,22.9-6.3,35.8-4.9,8.4-6.7,13.5-13,21.7-19.6,25.6-48.2,43.6-75.5,59.8-2,1.1-21.9,11.7-21.7,11.6,7.1.5,42.5-17.3,52-21.8,5.6-2.7,8.8-4.1,13.8-7.7l1-.5c21.4-10.2,37.1-25.3,55.8-39.2,2.4-1.8,5.9-2.1,8.8-1.4,2.4,1.5,4.6,4.2,4.7,7.1,2.5,67.4-21.3,106-81.8,133.3-15.4,5.9-28.4,10.7-44.6,14.5-9.4.7-20.3,1.2-29.6,2.7,12.5,1.1,21,1.6,33.8.5,13.8-2,28.2-6.1,41.5-9.9,20-6.5,39.2-14.9,58.2-24.5,2.3-1.1,8.2-.8,9,2.6.6,11.5-6.7,23.1-11.9,32.8-14.6,27.1-30,40.5-55.1,56.6-29.8,12.8-51.6,17.7-84.6,14.6-10.2-1.8-20.9-4.2-30.9-5.9,18.9,11,38.4,15.3,60.2,13.9,18.5,1.3,38.9-6.9,56.9-9.3,2.9-.4,4.3,1.7,6.1,3.6-19.6,38-67.7,54.2-108,55.2-15.7-1.2-26.2-2.1-41.6-7-6.2-2-16.4-6.3-21.9-7.8,12.1,11.8,21.3,17,37.5,22.5,6.6,2,24.2,5.7,28.1,7.4l-2.1,3.1c1.7,1.9,1.3,1.3,4,2.4l.6,1.7c-4.2,4.9-21.9,9.5-28.5,10.8-22.4,4.6-49.7,4.2-70.3-6.8-12.7-7.4-20.6-15.1-31.6-24.7-.5,6.7,6.1,14.1,10.3,19,2.6,2.9,5.4,5.7,8.4,8.2,2.8,2.4,7.6,5.7,8.4,8.9-1.3,3.7-1.5,2.6-.6,5.7,2.5,2.2,5.4,3.9,5.7,6.5-7.9,3.1-36.5-3.4-45.1-7.6-20-9.9-32.3-19.4-43-38.5-6.5,12.3-11.3,22.4-5.7,36.8,8.4,20,11.7,40.1,1.1,60.4-9,17.2-37,22.5-52.5,31.4-26.9,15.5-60.1,47.9-48.5,82,11.5,33.7,11,48.4-19.2,70.3l-5.9,6.5c-2.8,15.7-3.5,30.7-4.9,46.6-.4,3.8-2.5,17.1-2.4,19.8-3.1,21.5-3.8,47.4-7.7,68.9-1.8,34.6-4.2,68-8.4,102.4-1.4,11.9-.8,22.4-3.4,34.5-3.6,23.1-6.2,56.2-8.5,80-.8,18.3-4.6,45.5-3.7,61.7l.8.8c6.8,6.8,14.4,12.1,21.1,18.7,15.2,15.1,23,37.3,23.1,58.5.2,24.6-9.5,43.8-27,60.7-6.8,6.6-27.6,24.1-36,26.7-14.1,3.4-30.4,4.2-44.4-.2-19.2-7.5-35.5-17.6-49.3-33.2-15.3-17-23.1-39.5-21.7-62.4,1.1-15.2,8.7-35,20.4-45.2,4.8-5.3,13.2-11.4,18.8-16.9,4-2.8,6.9-4.5,6.6-9.9-.8-14.4-2.7-28.8-4.3-43.1-3.7-31.5-7-63-10-94.6-.8-15.3-4.5-35.9-5.5-51.9-.6-8.9-2.2-30.8-3.6-38.1-2.7-24.3-5.2-52.3-7.2-76.6l-.6-8.7c-4.1-29.4.3-48.9-7.8-79.1-.5-5.4-2.1-13.5-3-19.1-11.6-13.2-32.7-22.5-37.7-41.4-4.6-17.5,7.4-35.5,15.5-49.9-13.3-25.1-36.5-53.5-60.7-68.9-19.4-12.4-37.2-11.8-50.8-35.6-19.6-34.2,8.8-51.8-9.1-88.6-6.9,12.1-16.5,22.6-28,30.5-13.7,9.4-41.6,17.4-56.9,14.5l.2-2.1c3.4-4.6,2.4-4.1-.3-8.9,15.1-14.5,20.3-13.6,29.3-35.1-13.7,13.8-23.4,19-40,28-25.1,7.4-53.6,5.2-78.8-1.9-11-3.1-3.9-6-7.7-13.5,1.1-1,32.1-10.1,37.4-12.3,13.4-5.7,24.7-14.2,35.1-24.3-9.7,5-18.6,9.8-28.8,13.8-30.8,12.7-68.7,9.4-98.9-3.1-13.3-5.5-56.3-31.4-48.8-48.6,4.6-2.6,18.4,2.7,24.9,4.4,17,4.4,41.1,6,58.4,3.1,6.1.4,16.3-2.9,22.2-4.7,5.6-1.2,14.1-6,19-8.9l-22.8,5.7c-23.3,3.7-42.4,3-65.2-.6-31-6.2-57.7-26.4-76.9-51-6.5-8.4-31.8-46.5-18.5-55.1,2.2-.5,3.9-.4,5.9.7,17.6,9.4,33.8,17.2,52.5,24.4,8.9,2.8,16.4,5.2,25.5,7.4,7.2,1.9,11.6,2.7,18.9,3.7,15.1,1.4,23.5,2.1,38.2-1.1-10.8-.2-21.6-1.5-31.9-1.6-5.9-1.7-12.6-3.9-18.6-4.8-13.6-4.9-31.5-13.6-43.4-17.6-28.3-20.1-46.7-31.8-57.7-68.5-4.8-18.6-8.7-43.9-4.7-62.7,1.7-7.9,24.8,10.9,27.4,12.8,19.9,19.3,77.5,47.7,103.8,55.1-18.3-10.8-37.1-20.4-54.3-32.9-3.6-2.6-7.2-5.1-11-7.4Z"/>
        <path class="cls-11" d="M3703.2,791c.6-4.9,1-13.3,5.2-16.1,11.1-7.4,45.9-3.3,59-1.5,46.4,6.4,93.7,1.4,140-3.3,5.2-.5,23.2-2.4,27.7-4.4,9.5-5.1,25.2-12.5,33.2-.2,11.8,18.3-11,41.4-20.6,56.1-25.1,38.6-46.4,80.3-70.3,119.4-33.8,55-72.8,110.4-119.3,155.4-7,6.7-17.9,10.8-25.8,16.1,127.2,3,133.7,31.9,163.3,149,16.4,64.8,44.8,171.5,97.8,214.8,11.4,9.2,24.7,15.9,38.8,19.7l-1.1,16.6c-5,5.5-10.6,7.2-16.1,12.4-24.7,23.3-45.5,43.2-72.3,64.8-19,15.3-45.4,46.5-70.4,53.4-17,1.4-50-26-62.5-37.5-46-42.3-69.8-103.8-79.8-164.3-1.6-9.8-2.8-20-4.2-29.8-5.8-25.2-6.5-50.5-11.6-75.7-7.5-36.9-26.4-74.6-50.8-103.3-7.3-8.1-20.1-18.8-31.5-18.4-7.6.2-22.3,13-26.7,18.6-16.7,21.2-20.4,50.3-23.2,76.3-1.2,6.1-4.8,12.4-5.3,18.6-1.5,17.7.2,36.2-.4,53.8-2,63.8-.4,135.3,40.1,188.3,8.8,11.6,20.5,16.8,26.1,32-1.8,4.9-2.9,9.8-8.1,12.1-12.2,5.3-87.4,1.6-104.2,0-2.7-.2-1.6.4-3.3-1.5l.7-4.2c-34.1-1.9-80.8-3.8-115,.4-3.9.5-1.6,1.6-3.7,4.8-9.8,2.8-22.9,2-33.1,2.3-22.3.6-20.1-3.2-20.2-22.1,22.3-19.8,30.8-40.2,38.7-68.8,4.4-15.9,6.6-37.5,8.5-53.8,1.6-30,.9-64.6.9-95v-159c-.1,0,.1-179.9.1-179.9l-.2-76.4c-.2-38.9-1.1-70.4-11.6-108.2-5-18.2-10-28.8-22.5-43.4-5.7-6.7-16.8-18.9-13.4-28.4,5.7-14.7,30.5-10,42.5-6.7,31.3,8.7,61.9,3,93.7,5.5,8.7.7,18.9,6.7,28.2,6.3,5.9.1,11.8-5.9,17.4-6.4,17.2-1.8,27.8,3.9,43.5-6.1,6.6-4.2,32.4-4.4,39.5-.5,6.1,3.3,7.4,5.8,10,12.4-5.9,23.6-14.4,39.6-23.2,61.3-2.9,11.9-9.1,28.1-11.5,39.7-7,35-12.6,69.7-13.2,105.4-.2,11.6-6,24.6-6.3,36-1.1,43.4.1,86.8-.7,130.3,12-12.5,25.8-25.1,38.2-37.8,12.4-12.6,17.3-23,26.2-33.2,45-51.8,78.9-99.7,101.7-165.2,3.7-11.2,3.7-16.6,5-27.5,2.8-23.5,2.6-29.4-5-51.2-11.9-29-20.5-32-39-51.7Z"/>
        <path class="cls-11" d="M340.1,713.4c5.2-.6,17.4-.4,22.4,2.3,58.5,31.7,118.9,61.3,185.5,70,9.8,1.3,33.2-8.7,42.4-12.5,10.9-4.5,31.5-19.5,43-12.1,3.8,5.3,2.1,13.4,1.5,19.6-1.5,14.7-5.1,29.7-8.9,43.9-15.5,58.4-44.8,114.3-92.8,152.6-10.1,8.1-25.6,18.4-39.1,17.8-21.9-1-95.5-62.8-114.7-78.6-15.5-12.7-31.7-28.7-49.2-38.5-5.2-3-10.9-4.9-17-5.4-11.9-1.1-22.1,3.1-31.1,10.6-10.6,8.9-20.8,23.2-21.8,37.4-4.8,68.5,136.7,168.2,187.7,205.7,21.7,15.9,43.3,32.1,64.8,48.3,53.7,41.2,133.7,106.7,126.6,181.9-10.4,109.6-141.4,178.3-216.6,243.8-32.8,28.6-47.7,39.5-90.5,36.8-21.7-4.9-48.9-17.4-67.8-28.9-43.5-26.3-176.9-129-199.8-164.4-.6-4-1.8-14.8.7-18,18.1-23.7,43.6-42.9,65.4-62.9,28.9-26.5,56.1-51,87.3-74.8,4.9-.3,16.3-1.4,19.1,2.4,7.2,9.9,11.1,26.6,17.5,37.5,31.8,54.2,79.5,103,135,132.7,15.7,8.4,38.4,17.3,55.7,11,10.5-3.8,16.9-11.6,21.4-21.4,2.6-5.8,6.1-15.5,5.4-21.6-7.7-65.4-103.9-134.3-151.2-169.8-26.8-19.9-53.6-39.7-80.6-59.4-50.7-37.3-105.6-81.2-128.9-141.8-10.4-23.4-7.6-46.2-8.7-70.2-1.8-40.6,18.5-63.8,45.3-92.1,24.6-23.7,50.2-52.5,75.1-75.3,27.6-25.2,85.5-95.4,117-106.8Z"/>
        <path class="cls-11" d="M654.1,964.9c3.3-41.9,1.6-51.8,35.6-80.5,22.5-19,46.8-36.8,69.5-55.5l44.8-37.1c45.6-37.6,53.3-46.1,106.9-9.8,122.3,83,162.3,200.2,147.7,344.5-9.1,90-39.8,148.2-110.9,206.4-13.6,11.4-71.4,56.5-85.5,62.6-6.3,2.7-13.1,3.8-19.9,3.1-38.5-3.5-96.3-50.8-121.4-81.5-39.5-48.5-63-108.1-67-170.6-1.9-16.2-2.2-43.1-2.5-59.9-.7-38.5-1.5-83.4,2.6-121.6ZM892,1280.8c24.9-17.2,29.3-43.7,34.2-72.3,1.1-7.9.7-15.3,3.2-22.9,4.5-13.5,2.5-34.3,2.7-48.7,1.1-65.3-5.4-132.4-43.7-187.6-17.9-25.3-45.1-54.1-75.4-63.2-18.7-5.7-28.9,34.5-30.2,46.7-6.3,39.9-7,122.4,0,161,2,19.4,10,52.2,16.2,70.9,16.8,50.9,44.1,91.5,93,116Z"/>
        <path class="cls-11" d="M1238,908.6c-3.1,47,0,113.2,0,161.9l.2,81.8c.1,35.7-4.4,85.2,29.2,107.3,21.9,14.4,59,2.9,72.8-18.7,5.3-9.5,3.6-66.4,3.6-80.9v-218.4c-.1-35.9,4.1-83.2-12.3-116.3-3.9-7.9-21.5-20.8-15.4-32.7,9.5-14.2,46.5-3.2,60.6-3.5,9.3-.2,17.2-1.4,25.4-2,15.8-1.2,31.7-2.3,47.6-3.3,13-.9,28.3-6.1,39.4,0,5.5,8.1-5.5,29.7-8.8,38.4-14.4,38.3-11.9,80.9-11.7,121.3l.7,111.8c0,34.6,0,69.2-.4,103.8-.2,30.3-1.3,61.4,2.4,91.5,3.4,27.5,10.2,51.7,34.1,67.6-.7,5.5-.8,8.8-.8,14.3-26.6,18.5-54.6,37.8-81.5,55.9-4.5,3-16.9.8-18.9-5.2-12.1-25.5-34.2-42.4-52.2-63.5-15.8,8.6-30.6,19-44,30.9-21.3,18.8-40.2,48.4-72,36.8-51.7-18.8-107.1-63.9-122.8-118-1.3-11.6-.2-30.2-.1-42.2.2-25.9,1.5-52.2,1.2-78.1,3.1-58.9-.4-121.3,0-180.3.2-22.4.1-48-1.4-70.2,0-13.7-1.9-29.9-5.6-43.1-2.6-20.7-36.5-48.5-26.4-58.9,9.4-9.7,62-2.4,79.9-1.4,21.5,1.3,85-9.2,101.6-4.1,12,3.7-16.1,51.2-17.8,65.9-4.7,20.7-5.8,29.9-6.6,51.5Z"/>
        <path class="cls-11" d="M2046.8,759.4c20.2-.3,35.2,12.6,52.7,21.2,26.2,12.9,53.7,28.3,82.2,35.4,7,1.7,23.5-2.5,31.2,1,14,6,2.8,27-.7,36.7-15.6,34-44.4,82.2-79,98.5-28.8,13.6-86.6-66-113.7-76.4-14.6-5.6-17.7,4.5-22.1,14.4,6.9,20.6,21.8,39.9,35.2,56.8,23,28.9,47.8,55.4,74.5,80.8,41.6,39.6,92.4,78,118.3,130.7,8.7,17.7,13.7,38.2,7.1,57.5-2.8,8-7.2,15.2-12.2,21.9-22.1,29.4-130.1,141.2-157.9,154.1-15.8,7.3-40.4-6.6-55.4-12.3-12.1-5.1-24-10.9-35.4-17.4-22.1-12.7-42.3-27.3-66.8-34.9-8.1-3.1-12.8-3.3-21.2-1.6-7.2,1.4-23,5.8-26.8-2.7,0-6.1,2.9-13,6.3-18.1,28.3-42.7,57.8-85.8,90.1-125.6,4.8-6,17.4-7.1,22.5-2.6,8.8,7.7,16.2,20.5,23,29.9,18.1,24.8,39.6,46.9,65.8,63.2,11.9,7.4,36.7,17.5,44.7.2,9-16.4-1.7-34.1-10.4-48.3-33-53.8-84.4-89.4-131.7-129.3-44.7-37.7-103.3-87-100-151.4.5-10-.7-15.1,4.6-24.5,5.5-9.7,11.7-17.8,19.7-25.7,23.3-22.8,49.2-42.9,73.6-64.7,23.1-20.3,46-41.3,70.1-60.2,4-3.2,7-4.8,11.9-6.3Z"/>
        <path class="cls-11" d="M2930.2,1035.9c3.3-12.6,4.3-35.1,6.9-46.1,5.5-23.6,14.7-83.9,25.3-102,6.2-10.5,59.4-38.5,73.1-47.3,19.8-12.7,41.9-25.8,61.5-40.2,15.3-10.9,30.2-22.5,45.8-33.1,8.7-5.9,21-4.7,30.9-2.7,25.4,5.3,49.1,17.4,74.7,22.2,7.1,1.3,17.1,4.5,24.2,4.6,16.2.4,30.9-8.8,46.2-12.2,3.6-.8,7.5-1,10.5,1.2,9.1,22.7-40.4,124.3-49.9,150.6-8.6,23.9-35,19.6-55.4,13.3-47.7-14.8-92.2-39.4-117-84.7-19.7,32.2-27.8,40.4-38.4,78.2-8.6,38.8-9.7,105.3-1.1,143.9.1,8.3,4.2,21.4,6.6,29.4,22.2,71.4,73.9,145.8,157.8,139.3,12.4-1,24.7-4.5,36.5-8.5,13.5-4.1,46.1-21.6,58.4-19.1,11.1,12.8-24.6,56.6-33.2,69.2-19.8,28.9-36,61.7-58.9,87.7-11.2,12-44.8,9.8-59.7,8.4-65.8-6-130.8-33.7-173-86.4-36.9-46.2-62.3-104.3-71-163.2-.4-8.5-2-17.7-2.3-26.6-.8-24.9-.8-51.1,1.5-75.9Z"/>
        <path class="cls-3" d="M2674.8,287.8c1.4-25.4-5.5-28.4-14.4-51.8-7-18.5-10.1-38.2-9.2-57.9,3.2-66.5,75-119.5,128-149.2,4.8-2.7,23.1-4.4,27.5.7,1.6,11.2-15,37.6-19.4,50.7-16.2,45.1,25.5,71,52.7,97,23,22.1,41.5,62,40.4,94.1-.4,13.6.4,27.2-4,40.2-5.9,22.6-16,38.4-30.7,56.3-3.7,4.5-15.5,15.5-16.7,19.7,14.7-10,40.2-31,47.9-47.1,11.5-17,27.7-43.3,24.6-65.2-1.2-8.6-6.2-18.6-3.5-27,8.7-8.6,25.7,3.2,32.4,10,68,69.2,60.3,174.8-12.9,236.8-14.1,12-84.6,59.8-100.3,48.2-11-18.4,52.5-67.6,49.9-84.5l-1.3-.6c-22.3,14.9-46.9,21.6-65.3,38.9-17.6,16.6-7.8,48.2-35.7,50.5-17.6-8-47.6-61.5-49.6-82.1-.9-9.5,1.9-26.7.3-36,2.6-37.1,44.7-77.1,53.8-106.2,2.3-1.5,2.1-8.2,4.4-12.7,4.8-11.9,3.9-30.4,1.3-42.8-1.8-8.7-9.5-33.9-16.9-38.7l-.8,1.9,1.3-1.9h-.4c-2.8,4.6,3.6,31.1,4.2,40.4v1.1c-.3,5.7-3.3,28.3-3.1,30.9-2.7,4.9-3.8,9.3-5.7,14.5-8.1,21.3-23.2,40.9-38.2,57.8-17.7,19.9-34.1,38.4-24.7,66.9,1.2,3.8,9.4,26.1,11.3,27.8,7,23,42.9,59.5,39.2,80.5-4.8,6.6-12.9,2.1-19.7,0-8.8-4.8-17.7-11.2-26.5-16.1-49.8-28.7-91.9-57.2-119.1-111-29-57.4-14.5-137.4,38.4-177.4,3.2-2.4,15.6-1.8,19.7-.2,6.3,10.9-3.9,48.2,16.4,60.1,13.1,7.7,19.7-7.9,24.9-16.4Z"/>
        <path class="cls-11" d="M2235,853.9c3.8-21.4,7.6-67.1,21.7-81.4,13.1-4,109.9,9.7,131.1,11.2,48.4,3.3,87-2.7,134.1-5,18-1,35.7-4.6,52.7-10.7,7.8-2.8,21.4-10.1,30-8,3.4.8,3.9,3,5.3,5.9.4,11.8.4,19.8-1,31.8-3,32.9-15.6,120.6-63.1,113.4-21.9-3.3-43.3-14.4-67.4-16.8,2.5,32.3,1.7,72,1.8,104.9v165.7c.1,24.5-.9,56.9.8,80.8,1.6,17.2,2.2,28,6.8,44.8,5,23.5,17.3,43.4,36.6,57.7.7,3.8,3.1,14.2.7,16.5-12.3,12-43.2.4-56.6-.3-39.6-2-79.4-1.2-119,.7-13.9.7-29.5,9.5-42.7,2.5-7.1-3.8,0-15.9,3.4-19.9,8.5-10,27.2-29.3,29.1-42.4,12.7-26.7,9-93.8,8.8-126.2v-127.5c0-22.4-.9-62,2.2-82.8,2.5-31.6,6.9-52.9,17.9-82.6-17.2-.4-38.1,2.5-55.3,5.3-15.9,2.9-28.9,10.7-42.3,19-9,5.5-33.1,30.2-39.3,11-1.5-20.6,2.8-46.7,3.9-67.5Z"/>
        <path class="cls-11" d="M1694.1,1105.4c.1,44.5.6,92.3-19.1,133.2-2.6,5.4-11.9,14.2-12.4,19.6,3,.9,15.1-2.3,19.7-2.5,59-1.9,116-10,162.3-50.2,7.2-6.2,29.4-29.1,37.2-13.9,1.4,2.7-5,24.4-6.3,28-16.4,43.1-36.5,85.1-51.5,128.8-17.9,55.6-30.1,37.4-76.6,23.7-5.4-1.6-15.3-1.3-21.2-2.5-6.7-1.3-13.8-4.6-20.8-4.9-43.7-1.5-88.9-4.1-132,4.8-16.9,3.5-87.3,14-46.2-22.5,15-13.3,28.7-30,33.8-49.7,9.3-33.9,8.3-70.1,8.2-105l-.4-91,.2-131.6c0-28,0-56.3-1.2-84.3-1.1-22-5.4-43.9-21.7-60-7.4-7.7-32.7-18.5-18.1-31.4,9.9-8.1,23.2-10.1,34.8-13.9,15.9-5.2,24.3-11.1,41.7-8.7,24.9,3.5,42.7,22.3,67.6,24.9,16.1,1.7,30.3-3.6,46-6,9-1.4,17-1.1,26-.7-.4,7.2-.4,9.5.5,16.7-17.9,11.3-43.2,42.3-45.5,63.5-10,31.6-5.5,103.1-5.8,138.4-.2,27.9-1.1,69.8.5,97.1Z"/>
        <path class="cls-11" d="M1655.3,1464.2c-6.5-6.4-15.6-10.6-17.1-19.2,1-3.7,0-2.3,2.8-4.4,16.4-1.1,40.2-.6,58.4-.9,43.4-.7,101.9-6.4,141.9,12.8,7.9,4.2,16.1,12.4,17.9,21.3,6.3,31.9-17.1,51.9-45.8,59.3,60.2,17.2,28.3,32.1,43.1,50.2,5.1,6.2,18.2,6.2,21.4,11.6l-2.4,2.6c-.4,2.2-.2,3.2.1,5.5-1.5,1.4-2.8,2.3-4.6,3.1-18.8,8.1-56.6,13.8-75.7,5.4-40.4-17.8-19.6-36.9-25.4-49.1-1.5-3.2-4.8-3.9-7.8-4.9l-1.2-.3c-9.6-2.7-16.9-3.3-26.9-3.8-.2,11.9-3.2,30.1,6.1,38.1,6.2,5,15.8,12,12.3,20.6-15.6,3-38.1,0-55,0-19.1.1-39.2,1.9-58,1.6l.4-12.9c7.4-5.6,19.4-11.5,19.7-22.2.2-10.5.4-22,0-32.5-1.1-26.3,1.2-56.2-4.2-82ZM1735,1522c11-1.2,21.4-3.4,31.1-9,6-4.1,12.7-9.5,14.2-17.1.8-4.5-.5-8.9-3.2-12.5-5.9-7.7-17-11.4-26.4-12.3-3.9-.4-7.8-.4-11.7-.5-1.9.9-2.9.8-3.5,3-2.4,8.6-.6,37.9-.5,48.4Z"/>
        <path class="cls-11" d="M870.5,1440.5c14.1.2,28.2.3,42.4.2,12-.2,24.4-1,36.4,0,10.6,10,20.5,20.8,30.9,30.9,15.9,15.3,32.5,29.9,48.2,45.5-.2-12.1,1.8-28.5-2.1-39.9-4.6-13.4-17.9-20.8-29.8-26.7l2.8-9.4c21.3-1,42.7.5,64,.7,12.9.1,26-1.2,38.8-.3,2.6.2,5.7.3,7.8,1.9,1,.8.8,1.4.9,2.6-4.1,8.5-16,15-23.1,21-1.4,4.1-2.7,8.2-3.1,12.6-1.6,15.2-.8,31.4-.8,46.7.2,28.8.2,57.7,0,86.5-4.4.6-8.8.7-13.2,1-8.7.1-17.5.8-26.3.5-4.2-.1-7.7-.9-11.3-3.2-11.4-7.5-21.7-19.6-31.5-29.2-20.3-19.5-40.1-39.5-59.6-59.8-.6,18.8.6,41.5,1.3,60.5,6.9,7.9,17.7,12.1,23.5,19.3,1.5,1.8,1.1,3.1.9,5.4,0,.4,0,.8-.1,1.3l3.7,2.9-.2,1.1c-2.5,1.3-4.5,1.4-7.3,1.5-13.9.3-28.1-1.6-42-1.8-15.7-.3-40.5,4-54.6-.1l-.4-1.2c1.6-13.6,12.7-17,20.4-26.7l.9-1.1c.1-18.7,2.3-103.4-3.3-114-4.8-9.2-16.2-11.6-21.3-19.7-1.4-2.2-1.2-3.3-.5-5.6,2.4-2.4,4.4-2.7,7.6-3.2Z"/>
        <path class="cls-11" d="M1971.3,1439.5c24.7-3,51.8,2,76.7,2.3,15.2.2,37-6.5,51.2-.7l.5,1.5-2,1.7c-.6,2.5-.3,2.6.9,4.9-2,3.2-7.4,5.2-10.6,7,18.1,38.8,33.6,104.4,62.9,134.2,6.4,6.5,12.9,7.3,18.3,12.1-.2.2-.5.5-.7.8-3.9,4.3,1.4,3.9,1.6,8.2-3.2,1.8-6.9,1.8-10.5,1.9-17.2.5-34.4-1.7-51.6-1.7-15.3,0-30.7,2.1-45.9,1.6-3.4-.1-7.2-.2-9.6-2.8-1.1-2.5-2-4.9-1.3-7.7.7-2.7,2.8-3.8,4.9-5.2.3-.2.6-.4.9-.6,1.6-.9,3.3-1.7,4.8-2.8,2-1.6,2.8-3.7,2.7-6.2-.1-4.1-1.9-8-4.9-10.8-2.1-2.1-4.8-3.8-7.7-4.4-9.4-2.1-38.3-1.9-48.7-1.6-5.8.2-13.1,1.6-17,6.4-1.6,2-2.4,4.1-2,6.7.7,4.8,3.5,8.3,7.4,11l6.5,4.5.8,11.8c-.5.3-.9.6-1.4.8-11.6,4-38-1-51.4-1.2-12.3-.2-24.7,2.5-36.9,2.1-3.1,0-5.7-.6-8.6-1.8l-.4-1.7,2.4-3.1c-.4-1.1-.8-1.9-1.6-2.9-.2-.3-.5-.6-.7-1,2.6-4.4,14.1-9,18.9-12.4,17.2-12.3,58.1-105.4,61.8-129.1l.2-1.7c-3.2-2.3-6.3-4.5-9.2-7.2-1.1-2.8-1.6-4.8-1.3-7.8.1-1.3-.5-1.9-1.1-3.1l1.5-2.2ZM2026,1541.8c6.4.1,12.8.5,19.1.4-3.8-9.5-7.6-18.9-10.9-28.5-2.7-7.6-4.8-16.9-8.5-24-.9-1.8-2.4-2.5-4.2-3.4-2.4,12.7-5.5,24.8-10.8,36.7-2.1,4.7-5.4,9.2-7.2,13.9-.7,2-.8,2.9.3,4.7,7.2,1,14.9.3,22.2.1Z"/>
        <path class="cls-11" d="M3115.3,1583.1c1.2-19.7,2.5-94.7-2.9-110.3-4.1-11.9-15.9-20-18.8-31.5l.8-1c11.5-2.3,34.6.8,47.1.9,24,0,49.1,1.1,73-.2,23.8-1.2,38.5-3.6,62.3.3,10.4,11.2,12,21.9,14.2,36.9.5,3.5.8,7.5-1.5,10.4-8.2.9-37.7-8.1-47.4-10.1-17.4-3.4-32.7-5.7-50.7-4.6-.8,9.6-.6,25.9-.5,35.8,9.2.8,34.8.9,43.2-1.2,16.4-4,10.9-7.8,30-6.8-.4,10.3,1.4,40.9-1.2,48.4-1.9.9-4.6,1.6-6.5.9-23-8.2-38.9-9.7-63.1-10.9-1.7,1-3.9,1.8-4.2,3.9-1.1,9.6-2.1,26.5,2.5,35.3,1,2,4.9,2.2,6.9,2.5,34.1.1,58.7-9.8,88.7-23.2,3.5-1.6,8.3-.6,11.7,1.3,1.2,1.8,2,2.2,1.6,4.5-1.8,12-14.4,40.8-22.4,48.8-8.2,4.6-30.7,3.2-39.1,1.9-47.3-7-92.5.2-139.6-1.2-2.3,0-2.8-1.3-3.8-2.8-.5-9.8,12.1-17.3,18.5-26.7l.9-1.3Z"/>
        <path class="cls-11" d="M1386.1,1439.6c29.1-1.8,62.1,1.9,92.2,1.7,18-.1,36-.6,54-1.3,7.9-.3,17.1-2.1,24.9-1.3,6.9.8,12.4,4.3,16.7,9.7,6.9,8.7,12.5,24.4,10.4,35.5-.2,1.4-.8,3.4-2.1,4-7.3,3.4-25.6-4.8-33.1-7.2-12.5-4-52.8-11.3-64.1-5.4-4.4,6.3-2,25.5-1.9,33.6,13.8.8,28.8,2,42.4.3,7.2-.9,22.6-8.5,27.1-7.1,1.6.5,2,.8,2.7,2.5,2.1,5,2.1,38,0,43.4-2.5,2.1-5.3,2.2-8.5,1.9-8.7-.9-17.6-4.7-26.1-6.9-12.6-3.2-25.6-2.6-38.5-2.2-.3,6.8,0,13.8,0,20.7v17.8c21.2,4.4,55.7-.9,75.9-9.6,8.6-3.7,18.4-10.3,27.6-11.6,2.7.7,3.7,1.2,5.7,3.2,1.8,4.1,1.1,7.4-.1,11.6-2.6,9-16.2,37.6-24.5,41.4-8.5,4-84.5-2-101.8-1.9-15.4.1-64.8,4.8-75.7.9l-.6-1.5c1.4-1.3,2.4-2.4,3.3-4.1-.3-.6-.8-1.3-1.1-1.9-1.7-4.5,11.3-11.8,13.8-16.6,2-3.7,3-7.8,3.4-12,1.3-13.6.7-97.8-2.7-108.8-2.9-9.3-15-13.2-16.9-21.2-.5-2.2-1.1-4.3-1.9-6.5-.1-.3-.2-.6-.4-.9Z"/>
        <path class="cls-11" d="M2811.1,1439.4c14.9-.7,30.4,1.5,45.4,1.6,22.1.2,44.7-2.5,66.7.2,1.3,1.5,1.5,1.9,1.3,3.9-.6,5.9-5.6,10.3-10.1,13.4,5.7,15,14,29.1,20.5,43.8,6.3,14.1,9.8,31.2,18.8,43.8,2.5-9.6,5.8-19.1,9.4-28.3,3.2-8.3,23.9-49.7,22.5-55.1-1.6-6.2-13.2-8.1-14.8-15.7-.5-2.4.6-4,1.8-6,1.6-1.2,2.7-1.4,4.6-1.6,13.4-.9,27.5,1.2,40.9,1.5,17.4.4,35-1.1,52.3,1.3,1,1.2,1,.8.9,2.3-.4,8.2-17,16.8-22.6,22.6l-.9,1c-27.2,35.6-41.8,73.6-59.4,114.3-2.6,5.9-5.7,25.4-9.9,28.6-2.5,1.9-6.1,2.3-9.1,2.4-11.2.5-22.8-2.1-34.2-1.8-9.5.2-20,3.5-29.4,1.2-9.3-2.3-10.5-23.4-14.2-31.6-7.7-17.2-17.4-33.8-26-50.6-10.3-20.2-19.9-42.5-33.1-61.1-6.4-9-18.8-13.1-24.4-22,.8-2.3.9-4.4,1-6.7l2-1.7Z"/>
        <path class="cls-11" d="M2291.8,1435.4c19.7-1.2,38.2,5.6,57.8,6.6,9.8.5,19.3-4.5,28.8-3.6,3,.3,4.9,1,6.7,3.3l-1.1,4.2c2.6,7.2-6.1,13.4-7,18.7-5.8,33.2-16.8,21.2-39.4,16.5-27.8-5.8-51.9-22.3-69.6,8-12,20.6-10.4,41.9,4,60.2,15.6,19.8,46.4,26.9,70.1,24.1,14-1.7,29.1-5.8,43.5-4.3l1.1,1.4c-1.2,20.9-10.7,16.9-25.2,29.2-6.2,5.3-19.8,13.6-28,14.4-56.2,5.5-135.8-6.2-148.7-72.8-11.9-73.2,47.2-96.1,107-106Z"/>
        <path class="cls-11" d="M2613.6,1438.5c3.4-.2,7-.5,10.3.3,2.4.5,4.5,1.8,5.6,4,2.1,4.3-.5,11.4-2,15.6-18.4,50.9-48.2,8.8-66.1,17.2-4.4,7.3-2.3,93-1.8,108.1,5.1,6.5,12.2,13,15.3,20.8,1.1,2.9,1,4.7-.3,7.5-1.6.8-3,1.4-4.7,1.7-14.8,2.7-32.1-2-47.1-2.4-14.2-.4-28.4,3.8-42.7,3.2-4.2-.2-9-.7-12.5-3.2-2.7-9.5,9.9-16.9,13.2-25.1.1-.2.2-.5.3-.7,3-13.6,4.5-96.3.8-106.8-13-11.9-55.1,15.7-64.1,12.6-2-.7-2.3-1-3.1-3l3.7-3.3c0-.3-.3-1.6-.3-1.8,0-.3-.2-.6-.3-.9-1.2-5,8.9-35,12.3-39.8,2.1-3,7.4-3.1,10.8-3.2,14.5-.5,29.4,1,44,1.6,38.5,1.7,91.5,4.4,128.9-2.5Z"/>
        <path class="cls-11" d="M1163.4,1438.5c17.4,0,34.8,1.5,52.2,2.2,20.3.8,40.7,1.2,61.1,1.2,9.2,0,18.3.2,27.5-.4,17.8-1.1,35.6-3.9,53.2-.3-2.1,10.8-4.9,23.9-10.4,33.4-13.4,23.1-44.6-3.9-62,1.2-2.7,7.2-1.8,93.4-.6,105.8.5,5.8,2.9,9.8,7.4,13.5,3.2,1.9,7.4,4.1,9.5,7.3,1.5,2.3,1.5,3.4.9,6.1-1.2,1.3-2.2,2.3-3.8,3-3.9,1.8-8.4,2.2-12.7,2.4-13.4.3-26.9-2.6-40.3-2.7-14.6-.1-35.1,6.6-48.8,1.6-2.6-1-2.9-1.1-4-3.6,1.3-7.7,9.8-14.5,15.1-19.9-.2-3.5-.3-6.5,1.2-9.7,5.7-12.3,3-86.3,3.1-104.8-13.7.9-33.3,2.7-45.3,9.5-6,3.4-12.7,9.1-20.1,6.4-1.3-.5-2.6-1-3.1-2.4-1.3-3.6,7.7-37.4,10-41.8,2.4-4.5,5.1-6.4,9.9-8Z"/>
        <path class="cls-11" d="M711.6,1440.4c17.3-1.5,35.7.8,53.1.9,18.9.1,38.9-2.2,57.5.3,8.4,9-14.6,23.5-16.5,33.1-2.6,13.8-.3,40.3-.2,55.3,0,14.6-1.1,29.2-.6,43.7.5,18.6,7.3,15.9,17.7,26.9,1.8,1.9,2.6,3.8,2.4,6.5-.2,2.8-2.6,4.6-4.7,6-13.9,2.2-39.5-.6-55.3-.7-14.9-.2-29.9,1.1-44.8.8-2.7,0-6.3.2-8.6-1.4-1.5-3.7-.8-7.8-.6-11.8,5.1-2.2,9.2-4.6,12.5-9.3,2.6-3.7,4.1-7.9,4.8-12.3,1.5-8.6.7-18.1,1-26.9.8-28.3,1.9-55.6-2.4-83.7-4.5-5.8-11.4-10.4-14.8-16.8-2.1-3.8-1.6-6.6-.4-10.6Z"/>
        <path class="cls-11" d="M2666.5,1440.4c13.6-1.7,28.2-.7,41.9-.6,22.3,0,44.5.3,66.8.7-.3,3.9-.3,7.7-.3,11.6-5.1,6-10.6,11.8-13.4,19.3-2.8,7.4-3.9,106.9-1.3,112.3.2.3.3.6.5.9,3.2,6.1,17,17.5,15.9,24-.5,2.8-2.1,3.7-4.4,5.1-14.7,1.1-29.8-1.2-44.6-1.3-16.4-.1-33,1.7-49.3.8-3.1-.2-7.8,0-10.1-2-2.7-11,15-20.2,17.5-34.6,2-11.5.4-24.2.5-35.9,0-18.4,1.4-37.7,0-56.1-.4-5.3-1.4-11-3.4-15.9-3.1-7.4-11.1-10-15.2-16.5-2.4-3.8-2.2-7.8-1.1-11.9Z"/>
      </g>
      <g id="Logo_x5F_3D" class="cls-39">
        <path class="cls-22" d="M566.8,1466.2c17.1,1,35.7,5.7,44.3-11.2,9.3-18.4.6-55.1-11.6-70.4-70.9-87.1-174.9-138.1-256.9-214.5-44.1-41.1-90.7-131.2-50.4-189.1,33.9-48.6,93.4-100.1,136-143.5,40.5-41.3,61.7-83.3,120.2-45.1,42.6,20.4,96.9,48.7,145.9,47.6,23.5-1.9,47.3-16.5,69.9-19.3,16.4-2,6.4,30.9,4.7,38.2-14.9,64.2-43.9,131-100.1,169.6-43,49.2-144.3-93.7-190.3-100.5-15.3-2.3-22.2,4.6-34,12.6-8.9,11.2-18,23.4-13.9,38.4,22.6,81.9,136.8,149.1,197.5,196.7,120.4,94.5,214.3,159.9,89,299-21.6,21.3-54.7,51.6-79.6,69.1-24.9,20.7-86.4,72.3-115.3,80.6-35.5,10.2-93-24.9-123.1-46-30.4-21.4-147.7-105.4-155.5-139.8-3.7-16.3,112.5-112.2,131.9-129.5,12-10.4,15.8-16.5,30.4-6.5,30.4,65.1,87.9,143.8,161,163.6Z"/>
        <path class="cls-4" d="M566.8,1466.2c17.1,1,35.7,5.7,44.3-11.2,9.3-18.4.6-55.1-11.6-70.4-70.9-87.1-174.9-138.1-256.9-214.5-44.1-41.1-90.7-131.2-50.4-189.1,33.9-48.6,93.4-100.1,136-143.5,40.5-41.3,61.7-83.3,120.2-45.1l-3.6-.2c-5.1-.3-6-.7-10.8-2.3-12.3,8.6.8,19.1-27.8,22.7-12.5,12.6-41.2,50.6-49.7,57.3-238.9,186.4-102.5,263.7,82.6,399.8,44.3,32.5,117.3,93.6,120.8,154.3,3.7,38.2-27.8,60.4-60.7,69-11.7-6.3-24.3-12.4-29.2-24.3-.4-.9-2.1-1.8-3-2.3Z"/>
        <path class="cls-44" d="M375.4,1309.1c12-10.4,15.8-16.5,30.4-6.5-6.1.2-9.9-.6-14.8,2-.2,5.2,2.2,9,4.4,13.9v-2.4c8.6,50.4-81.1,94.2-82.5,123.6,10.2,25.2,135.3,120.4,168.5,132.5,20.2,7.3,27,11.6,49.7,11.8,26.4-3.6,48.8-21,69.5-36.4.8,5.9,0,6.6,3.2,11,14.9-3,10.8-14.3,33.5-14.6-24.9,20.7-86.4,72.3-115.3,80.6-35.5,10.2-93-24.9-123.1-46-30.4-21.4-147.7-105.4-155.5-139.8-3.7-16.3,112.5-112.2,131.9-129.5Z"/>
        <path class="cls-28" d="M375.4,1309.1c12-10.4,15.8-16.5,30.4-6.5-6.1.2-9.9-.6-14.8,2-.2,5.2,2.2,9,4.4,13.9v-2.4c8.6,50.4-81.1,94.2-82.5,123.6,10.2,25.2,135.3,120.4,168.5,132.5,20.2,7.3,27,11.6,49.7,11.8-6,1.9-13.5,10.3-21.6,10.3-23.4-.2-48.4-19.4-68.4-31.7-20.6-12.7-42.9-27.8-62.7-42.4-22.7-16.7-79-56.8-83.1-84.2-4.3-28.6,58.2-57.5,72-78.6,14.9-21.3,8.3-26.2,8.2-48Z"/>
        <path class="cls-5" d="M467.9,899.9c28.6-5.4,49.5,3.1,72.9,18.9,20,13.5,106.5,78.9,111.1,100.2,1,4.5,1.4,9.2,1.8,13.8,5.9-2.1,8.7-3.4,14.9-4.4-43,49.2-144.3-93.7-190.3-100.5-15.3-2.3-22.2,4.6-34,12.6,1.7-4.4,18.6-31,23.5-40.7Z"/>
        <path class="cls-28" d="M600.7,1547.4c26.3-22.3,55.1-45.1,82.7-66,14-10.6,17.8-9.8,33.5-6.7-21.6,21.3-54.7,51.6-79.6,69.1-22.7.3-18.6,11.6-33.5,14.6-3.2-4.4-2.5-5.1-3.2-11Z"/>
        <path class="cls-22" d="M3454.7,830.7c16.6-8.6,43.2-7.1,49.7,14.7-6.1,33.9-20.8,54.9-27.3,78.1-13.1,46.7-27.4,204.3-19.6,247.8l1.3.4c8.6,11,8.5,25.9,31.9,20.7,12.4-2.7,17-11.5,30.7-8.3,26.5-9,53-76,74.3-97.5l-2.8,14.5,5.4-2.4c7.4,6.8,9.4,53.4,10.2,64.9,3.9-13.1-2.5-22.5,1.9-29.5l4.7-1,.7,8c37.1,8.6,73.2-.9,96.9,40.8,54.8,96.6,39.3,249.9,151.8,307.9,7.4,3.8,3.6,18.5,1,24.3-30.8,34.5-88.1,77.9-123.1,109.3-46.3,41.7-141.9-102.8-142.6-139.5-.5-25.1-17.7-66.1-17.7-84.7,0-60.8-21.7-128.8-75-164-36.4,23.2-41.9,45.6-46.1,87-4.8,47.8-4.2,94.2-3.3,142.1,6.9,31.4,12.5,62.8,31.1,89.9,11.6,16.9,32.1,24.3,21.7,48.4-5.8,2.4-89.1,4.5-94.7,2.2-39.8-16.6-68-7.9-110-2.7-14.4,1.8-48.1,11.2-55.7-5.7-8.2-18.3,6.7-20.5,16.1-32.6,32.6-54.4,28-142.3,27.9-201.6l-.5-163v-122.7c.2-61.6,3.8-139.9-22.2-198.1-5.6-10.4-29.7-30-20.5-42.7,11.8-16.3,66.9-3,84.2-1.5,39.8,3.4,79.9,2.2,119.5-3.6Z"/>
        <path class="cls-23" d="M3510.5,1602.6c-5.8,2.4-89.1,4.5-94.7,2.2-39.8-16.6-68-7.9-110-2.7-14.4,1.8-48.1,11.2-55.7-5.7-8.2-18.3,6.7-20.5,16.1-32.6,32.6-54.4,28-142.3,27.9-201.6l-.5-163v-122.7c.2-61.6,3.8-139.9-22.2-198.1-5.6-10.4-29.7-30-20.5-42.7,11.8-16.3,66.9-3,84.2-1.5,39.8,3.4,79.9,2.2,119.5-3.6-6.5,14.1-18.6,2.7-8.7,34.3,4.6.6,3.2.6,7.7,0-32.9,22.5-74.3,5.9-114.3,12.7,6.6,1.9,18.6,4.7,24.3,7.7l-13.1,2.8-4.9.9c-1.9,2.9-3.9,5.9-5.7,8.9-8.8-8.7-3.3-15.7-19.1-23.5l-1.7.5c4.5,15.7,11.9,39.7,14.6,55.3,16.3,92.2,9,187.9,9,281.3-.8,80.4,1.9,161.1-2,241.4-1.2,25.4-5.4,45.7-12.9,70-2.7,8.8-10.3,28-3.8,34.4,23,7.9,60.4-6.4,96.5,2,28.5,6.6,78,41.6,89.9,43.1Z"/>
        <path class="cls-28" d="M3461.3,1233.9c19.3-7.2,28.9-15.8,45.2-22.8,50.2-21.4,94.2,53,106.2,86.6,31.3,87.9,14.7,186.5,82.1,258.1,10.1,10.5,30,31.6,45.3,30.1l3.7-2.4c-2.3-6.2-5.6-7.9-11.6-12.2,3.7-4.1,1.9-2.1,6.3-4.1,38.1-17.7,75.3-67.9,121.4-58.9,1.3.2,3.9,4.5,5.7,5.7-30.8,34.5-88.1,77.9-123.1,109.3-46.3,41.7-141.9-102.8-142.6-139.5-.5-25.1-17.7-66.1-17.7-84.7,0-60.8-21.7-128.8-75-164-36.4,23.2-41.9,45.6-46.1,87-4.8,47.8-4.2,94.2-3.3,142.1-8-23.6-2.2-29.9-5.6-49-9.2-51.8-22.3-121.9,3.4-171.5,1.8-3.4,3.7-6.8,5.7-10Z"/>
        <path class="cls-28" d="M3454.7,830.7c16.6-8.6,43.2-7.1,49.7,14.7l-7.2-5-1,1.8c-4.3,7.1-7.6,12-16.5,12.7-14.3,1.2-14.6,3.4-26,10.1-4.5.6-3.1.6-7.7,0-9.9-31.6,2.2-20.2,8.7-34.3Z"/>
        <path class="cls-22" d="M3608.6,1163.6c3.9-13.1-2.5-22.5,1.9-29.5l4.7-1,.7,8c1.9,11.8,6,52.2-21.4,42.5-19-6.7-27-21.6-21.1-41.6h1.2c0-.1,1.4,6.9,1.4,6.9l-1.1-3,.3,2.2,1.8-9.8c1.6,16.4,15,48.3,31.7,25.4Z"/>
        <path class="cls-28" d="M3363.6,885.3c13.4,1.9,32.4-2.5,50.3,0-9.7,2.8-50.8,2.6-63.3,2.7l13.1-2.8Z"/>
        <path class="cls-12" d="M3664.1,1199.1c25.7,4.2,38,35.3,45,57.1,23.7,73.3,34.1,150.3,78.9,215.4,6.8,9.9,28.8,23,30.5,35l-3.4,4.2-22.1,7.5c-7.8-7.6-15.9-21.3-22.4-30.3-50-69.8-63.7-156.1-87.1-236.7-5-17.4-19.8-33.8-19.4-52.1Z"/>
        <path class="cls-22" d="M2218.2,356.5c-1.9-3.4-3.8-7.6-5.5-11-12.5-24.5-13.3-114.8,14.9-126.8l3,1.6c5.1,7.1,10.5,19.4,13.8,27.4,21.1,50.9,61.5,81.2,108.2,108.1,43.1,24.8,95.9,43.1,126.5,84.7,19.9,26.4,18.5,65,33.4,86.4,39.2,56.3,57.3,40.7,50.3,116.3,16.3,2.7,36.3-1.1,45.6.5,16.3,2.9,32.6,7.5,51.1,9.1,62.3,5.3,129.4,15.4,191.5,12.3.2,0,3.8.2,4,.3,20.1,7.1,39.5-28.7,54.3-29.7,3.8,5.3,2.4,5.6,2.6,13.7l1.8,2.2c20.7,21.6,23.8,50-2.7,71.4-27.7,22.5-78.4,32.6-81,78.4,1.6,46.8,18.2,50-27.2,86.1-5.7,36.4-9.5,73.6-12.6,110.3-7.4,88.2-18.3,175.9-27.8,263.8,22.2,19.7,42.6,39.5,44.3,71.6,1,21.4-6.7,42.3-21.4,57.9-10.4,11-21.8,18-35.8,23.6-3.8,1.2-13.4,4.2-17,4.2-42.6.2-84.8-44-84.9-86.1,0-30.5,12.6-48,32.1-68,6.1-26.4-7-109.7-9.9-141.7l-13.3-144.5c-3-30.5-5.1-63.7-12.2-93.4-38.8-29.2-42.4-38.3-22.4-78.1,2.1-7-4.1-17.4-7.5-22.3-43.8-61.3-112.9-38.1-92.5-138.5l-1.3-3.3c-9.5-3.1-53.8,45.9-84.2,26.5l-.7-3.7c3.6-9,11.3-15.6,18.1-23.2-29.3,15.4-53.3,22-86.1,14.9-16.2-3.5-22.5-13.7-18.2-29.4-21.3-3.8-34.5-5.7-54.9-14.8-16.1-7.2-57-31.4-32.9-51.2-30.5-21.4-49.9-37.8-61.9-76.3-1.9-6-.7-9.5,2.3-14,6.6-2.1,4.9-1.3,12.6.4,5.3,8.9,35.4,15.9,44.3,22.7,4.7-.4,3.6-.5,8.2-2.7-3.7-3.1-2.9-2.3-7.6-4.3-20.2-10.1-39-19.5-51.8-39.1-3.7-5.6-7.5-15.1-12.1-19.4-6.7-16-17.5-56.5-3.2-70.3,7.3-1.5,4.6-1.3,12.8,2.5,6.2,5.3,27.5,25,33.3,26.8l2.3-2.4-1-2c-7.5-8.5-13.9-18.7-21.5-27.7Z"/>
        <path class="cls-4" d="M2521.8,646.6l1.6-5.8,1.2-.4,1.3,2.4c11.6,21.3,71.1,89.3,93.6,97.4-2.3-4.2-28.1-22.7-35.8-30.9-19.4-20.7-43.9-49.5-59.8-72.6,30.4,18.7,37.9,42.5,59.9,64,23.8,23.2,51.5,33.8,70.5,65.6.9,1.5,2.1,2.5,3.4,3.8,9.2,21.9,4.4,44.8,9.6,66.5,6.2,26.2,23.2,48.8,28.5,75.4,7.2,35.8,9.5,70.5,12.6,107.5,6.9,84.7,22.8,175.6,6.3,260-3.7,18.8-18.1,38.9-15.5,59.2,3,24.3,27.7,29.5,40,46.1,5.6,7.6,2,23.8,7.7,29.6l2.5.6c-3.8,1.2-13.4,4.2-17,4.2-42.6.2-84.8-44-84.9-86.1,0-30.5,12.6-48,32.1-68,6.1-26.4-7-109.7-9.9-141.7l-13.3-144.5c-3-30.5-5.1-63.7-12.2-93.4-38.8-29.2-42.4-38.3-22.4-78.1,2.1-7-4.1-17.4-7.5-22.3-43.8-61.3-112.9-38.1-92.5-138.5Z"/>
        <path class="cls-14" d="M2349.4,628.4c-21.3-3.8-34.5-5.7-54.9-14.8-16.1-7.2-57-31.4-32.9-51.2-30.5-21.4-49.9-37.8-61.9-76.3-1.9-6-.7-9.5,2.3-14,6.6-2.1,4.9-1.3,12.6.4,5.3,8.9,35.4,15.9,44.3,22.7,4.7-.4,3.6-.5,8.2-2.7,6.4,8.6,12.4,9.7,18.6,20.1,5.9,10,14,34.4,20.3,42,25.6,30.9,90.6,57.4,129,63.8,19.7,3.3,56.2.2,76.5-.3,30.8,28.9,51.4,51.2,78,83.3,20.1,24.2,56.5,30,68.2,68.7-1.4-1.4-2.5-2.3-3.4-3.8-18.9-31.8-46.7-42.4-70.5-65.6-22-21.4-29.5-45.3-59.9-64,15.9,23.1,40.4,51.9,59.8,72.6,7.8,8.3,33.6,26.8,35.8,30.9-22.5-8.1-82-76.1-93.6-97.4l-1.3-2.4-1.2.4-1.6,5.8-1.3-3.3c-9.5-3.1-53.8,45.9-84.2,26.5l-.7-3.7c3.6-9,11.3-15.6,18.1-23.2-29.3,15.4-53.3,22-86.1,14.9-16.2-3.5-22.5-13.7-18.2-29.4Z"/>
        <path class="cls-4" d="M2349.4,628.4c-21.3-3.8-34.5-5.7-54.9-14.8-16.1-7.2-57-31.4-32.9-51.2-30.5-21.4-49.9-37.8-61.9-76.3-1.9-6-.7-9.5,2.3-14,6.6-2.1,4.9-1.3,12.6.4,5.3,8.9,35.4,15.9,44.3,22.7-3,17.9,46.1,84.5,62.7,97.5,13.3,10.4,43.6,16.2,54.5,31.4-12.1,9.7-11.2,7.7-26.7,4.2Z"/>
        <path class="cls-4" d="M2195.6,429.6c-6.7-16-17.5-56.5-3.2-70.3,7.3-1.5,4.6-1.3,12.8,2.5,6.2,5.3,27.5,25,33.3,26.8l2.3-2.4c1,2,1.7,36.6,7.9,48.4,4.1,7.8,10.3,44.8,11,53.5-20.2-10.1-39-19.5-51.8-39.1-3.7-5.6-7.5-15.1-12.1-19.4Z"/>
        <path class="cls-4" d="M2218.2,356.5c-1.9-3.4-3.8-7.6-5.5-11-12.5-24.5-13.3-114.8,14.9-126.8l3,1.6-3.9,2.8c-6.2,42.4,25.7,101,28,140.8.2,3.8-6.5,15.2-8.7,20.4h-6.2c-7.5-8.6-13.9-18.8-21.5-27.9Z"/>
        <path class="cls-12" d="M2867.7,692.4c6.8-9.3,29.9-43.6,38.9-46.5l4,2.7c-.3,20.3-23.7,52.4-42.9,43.9Z"/>
        <path class="cls-12" d="M2603.1,692.4c-6.4-9.3-28.3-43.6-36.7-46.5l-3.8,2.7c.3,20.3,22.4,52.4,40.5,43.9Z"/>
        <path class="cls-22" d="M2850.8,665.2c.2,0,3.8.2,4,.3,20.1,7.1,39.5-28.7,54.3-29.7,3.8,5.3,2.4,5.6,2.6,13.7l-1.2-.9-1-6.3c-11.9-4.6-25.5,21.3-32.7,28.9-8,8.5-30.3,17.7-40.2,9.8,1.1-7.3,12.8-9.3,19.3-11.2l.3-1.8-5.5-2.8Z"/>
        <path class="cls-12" d="M2414.3,442.6c46.3.1,66.5,92.3,86.4,123.8,8,12.7,62.2,64.5,49.2,77.2-6.3-.8-4.9-1.3-10.6-6.9-.4-.6-.7-1.3-1.1-1.9l-1.9-3.2c-18.4-30.4-52.6-41.4-64.3-61.9-26.5-46.5-18.6-68.1-55.6-113.7,6,3.5,10,6.8,16.5,5.7v-3.2c-5-8.5-10.2-10.6-18.6-15.9Z"/>
        <path class="cls-22" d="M1004.1,1384.9c-18,20.4-35.4,26.2-61.6,17.1-77.6-26.8-137.9-107.8-151.9-187.2-12.3-69.7-11.7-142.2-7.6-212.7,1.8-22.3,6.4-43.1,23.5-58.6,33.5-30.5,69-58.8,104.5-86.6,18.1-14.1,48-44.4,70.6-36.7,79.6,37.3,125.2,84.3,156.5,168.6,30.2,81.2,30.2,187.6-6.8,266.9-29.4,63-76.6,88.8-127.1,129.2ZM1011.6,1288.2c.2-.5.3-1,.5-1.5,18.6-24.9,22.5-66.2,24.7-98,5.1-71.9-3-156-52.3-212.8-13-15-40.4-35.6-60.5-36.9-3.2,4.3-9.7,12.8-11.1,17.6-15,48.6-14.3,116.4-7.4,165.9,7.7,55.6,34.3,164.8,106.1,165.6Z"/>
        <path class="cls-4" d="M1004.1,1384.9c-18,20.4-35.4,26.2-61.6,17.1-77.6-26.8-137.9-107.8-151.9-187.2-12.3-69.7-11.7-142.2-7.6-212.7,1.8-22.3,6.4-43.1,23.5-58.6,33.5-30.5,69-58.8,104.5-86.6,18.1-14.1,48-44.4,70.6-36.7-5.8.8-12.6.7-16.5,3.9,3.2,14.2,9.6,10.5.3,25.7-25.7,42.4-118.4,75.1-133.2,121.8-18.1,57-15.2,176.7-3.5,235.2,11.1,54.8,41.8,103.8,86.4,137.6,14.2,10.6,32,20.3,45.5,31.6,15.1,12.5,6.2,19.8,9.8,23.7,14.5-.9,19.6-11.6,33.6-14.7Z"/>
        <path class="cls-4" d="M924,939.1c3-3,3.4-4.4,4.6-8.5,4.6-16.1,23.2-21.9,37.4-15.8,42.8,18.4,73.4,55.8,92.1,97.6,32.1,73.4,37.2,165.4,11.7,241.6-6.3,18.8-24.9,42.7-43,51.7-6.7,3.4-18.2-.4-21.5-7.8,2.9-3.6,5.3-5.6,6.2-9.7.2-.5.3-1,.5-1.5,18.6-24.9,22.5-66.2,24.7-98,5.1-71.9-3-156-52.3-212.8-13-15-40.4-35.6-60.5-36.9Z"/>
        <path class="cls-12" d="M889.2,930.9c1.3.7,5.2,2.1,4.1,4.5-10.1,22.7-18.5,42-20.3,67.6-4.7,69,2.2,141.3,23.9,207.3,13.4,40.7,42.2,92.8,77,119.5,9.2,6.4,51.8-10.5,64.9-15l-13.2,10.1c-14.7,9.2-21.7,14.4-40.1,15-22.4.7-55.5-24.7-70.3-40.9-61-66.7-67.4-183.4-65.8-269.1.7-39.4,11.2-71.9,39.8-99Z"/>
        <path class="cls-12" d="M987.9,880.4c5.6-.2,9.9-.3,15.1,2.4,127.6,66,156.5,222.1,98.3,346.3-1.4,4.4-.7,2.7-4.1,6.3.6-5.1,1.7-10.7.2-15.7-4.8-16.1,7-59.9,8.8-78.9,7.3-76.9-13.7-153.4-66.5-211.1-15.6-17.1-36.1-30-50.7-47.9-.4-.5-.7-.9-1.1-1.4Z"/>
        <path class="cls-24" d="M1362.2,1279.3c12-.4,50.8-7.1,50.9-22.9.6-116.7,0-233.8-.3-350.5,0-14.1-26.2-37.2-20.3-56.9,4.2-3.8,7.2-4.5,13.2-4.7,43-1.5,86.6,3.6,129-7.1,8.1-2.1,10.1-.6,16.6,3.5,1.6,29.5-17.2,47.9-17.9,77.5-2.5,111.7-.9,223.8-.4,335.6,0,12.3,1.8,36.3,6.9,46.4,17.6,34.7,42.5,26.1.4,61.4-96.1,82.8-59.3,2-118.1-22.5l-2.6-1.1c-29.2,13.4-44,42.5-71.1,56.5-12,6.2-24.8,5.4-37.4,1.3-44.2-14.3-96.3-66.9-107.7-112.5-5.4-21.5,1.1-45.3,1.2-67.2.7-86.5,2.3-173.8-2-260.2-.7-14.9.6-32.9-3.4-47.2-4-14.3-15.2-23.7-21.1-36.8-2.3-5-4-10.6-1.7-15.9,5.9-13.5,122.6-2.9,143-9.9.5-.2,1-.4,1.5-.6,6.9-5,13.5-3.5,21.1-.3,10.4,24.6-17.8,55-19.3,81.6-4.1,73.7,0,147.8-1.6,221.7-.7,34.3-4.7,70.6,4.8,103.9,4,13.3,19.9,22.1,32.4,26l2.2.7c.4.1.9.3,1.4.4Z"/>
        <path class="cls-38" d="M1419.7,1337.8c-29.2,13.4-44,42.5-71.1,56.5-12,6.2-24.8,5.4-37.4,1.3-44.2-14.3-96.3-66.9-107.7-112.5-5.4-21.5,1.1-45.3,1.2-67.2.7-86.5,2.3-173.8-2-260.2-.7-14.9.6-32.9-3.4-47.2-4-14.3-15.2-23.7-21.1-36.8-2.3-5-4-10.6-1.7-15.9,5.9-13.5,122.6-2.9,143-9.9.5-.2,1-.4,1.5-.6-8.2,19.6-66.1,36.8-83,46.8,3,13.3,10.6,44.6,11,56.9.9,26.7.7,56.9.6,83.8l-.4,153c-.1,30.3-3.3,76.2,4.4,104.9,4.6,17.2,65.4,77,82.8,73.2,7.6-13.2,21.8-4,31.2-10.5,25.8-17.7,63.8-55.4,97.7-36.6,25.6,18.1,33.6,40.8,75,44.5-96.1,82.8-59.3,2-118.1-22.5l-2.6-1.1Z"/>
        <path class="cls-34" d="M1342.2,845.1c10.4,24.6-17.8,55-19.3,81.6-4.1,73.7,0,147.8-1.6,221.7-.7,34.3-4.7,70.6,4.8,103.9,4,13.3,19.9,22.1,32.4,26l2.2.7c.4.1.9.3,1.4.4l1.9,2.3c4.7.3,7.8.3,12.5,1.6l-1.6,3.7c8.9,12.3,26.8,2.2,40.9,2.3l-2.4,1c-8.8,3.7-9.6,4.4-18.8,4.4l-2.1,1.7c6.2,1.8,13.6,3.1,17.7,7.6,1.1,12.9-21.4,21.8-31.6,24.4l-1.7-1.6c-10.4,3.6-22.4,6.9-33.1,10.1-14.5-12.3-38.6-20.8-52.1-39.9-6.5-9.1-14.1-18.6-16.4-30.1-10.3-51.3-6.9-109-7.4-160.7-.6-69.2-.6-132.8,5.9-201.3,5-4.4,11.5-8.9,16.9-12.9,5.7-10.2,34.4-34.1,43.2-45.1,0,0,7.4-1.4,8.3-1.6Z"/>
        <path class="cls-29" d="M1290.8,891.8l4.8,3.1c.5,10.2-7.8,16.8-8.5,32.5-2,49.9-.3,99.4.1,149.4.8,53.1-4.2,106.4,5.7,158.9,5.1,27.1,18.8,48.2,34,70.3,14.8,21.4,66.9-3,77,5.6-6.1,5.8-19.2,11.6-27.1,15-10.4,3.6-22.4,6.9-33.1,10.1-14.5-12.3-38.6-20.8-52.1-39.9-6.5-9.1-14.1-18.6-16.4-30.1-10.3-51.3-6.9-109-7.4-160.7-.6-69.2-.6-132.8,5.9-201.3,5-4.4,11.5-8.9,16.9-12.9Z"/>
        <path class="cls-35" d="M1362.2,1279.3c12-.4,50.8-7.1,50.9-22.9.6-116.7,0-233.8-.3-350.5,0-14.1-26.2-37.2-20.3-56.9,4.2-3.8,7.2-4.5,13.2-4.7,43-1.5,86.6,3.6,129-7.1,8.1-2.1,10.1-.6,16.6,3.5-2.5.2-5.5.5-9.2.8-15.1,11-26.1,26.7-43.6,34.2-17.9,7.7-23.2-4.9-39.7,6.5l-5.6-1.7c-1,12.9,6.9,43.9,7.3,60.2,1.2,54.1.4,108.3-.6,162.4-.9,48.6,4.7,99.4-2.8,147.3-3.1,19.9-22.4,34.5-41.2,38.8-14.1,0-32,10-40.9-2.3l1.6-3.7c-4.7-1.2-7.7-1.2-12.5-1.6l-1.9-2.3Z"/>
        <path class="cls-12" d="M3381.7,949.1c6.5-6.6,10.5-12,19.2-15.1l4.9,1.1c3.2,7.9-2.1,58.5-2.1,70.9-.1,133.4-.2,266.8,0,400.2,0,30.8,22.3,94.9,17.6,112.4-7.2,5.4-9.1,3.6-20,4.2-30.6-17.2-19.3-97.4-26.5-112.1-5.1,8.9-7.9,15.5-15.9,21.8l-1.1-2.1c3.2-3.3,9.6-10.1,10.3-14.2,8.9-50.4-.6-130.4,8.4-178.6-9-89.5,1.3-198.1,5.3-288.5Z"/>
        <path class="cls-12" d="M1476.6,945.7c5.4-4.5,8.6-8.2,15.7-10.3l4,.7c2.6,5.4-1.7,39.9-1.7,48.3,0,90.9-.1,181.9,0,272.8,0,21,18.4,64.7,14.4,76.6-5.9,3.6-7.5,2.4-16.4,2.9-25.1-11.7-15.9-66.4-21.8-76.4-4.2,6-6.5,10.6-13,14.9l-.9-1.4c2.6-2.3,7.9-6.9,8.5-9.7,7.3-34.3-.5-88.9,6.9-121.7-7.4-61,1.1-135,4.4-196.6Z"/>
        <path class="cls-22" d="M1480.9,1116.1c9.6,34-2.1,115.5,2.6,157,3.7,33.4,10.4,35.2,16,57.5-23-13-14.5-73.3-20-84.3-3.8,6.7-5.9,11.7-11.9,16.4l-.8-1.6c2.4-2.5,7.2-7.6,7.7-10.7,6.7-37.9-.5-98.1,6.4-134.3Z"/>
        <path class="cls-22" d="M2062.9,816.8c10.9,4.1,16.5,6.6,26.9,11.9,29.3,14.6,61.9,34,93.2,40.9,11.2,2.5,21.2-1.3,32.7,1.2,4.3,11.7,2.6,17.1,1.2,29.6l-9.4,20.9c-18.6,33.4-39.6,62-74.4,79.5-51.5-3.6-72.6-63.2-107.2-77.9-4.3,3.6-10.1,8.4-9.6,14.6,2,25.4,44.7,73.7,60.1,91.6,46.2,54,150.8,117.6,154.3,192.9,2,42.6-68.8,95.4-95.7,125-7.8,8.6-40.1,36.1-49.9,43-35.4,37.6-117.3-38.5-154.8-47.7-8.4-2-17.8.5-26.3.9-7,.3-11.4-.4-16.6-5.2-6.5-22.3,58.2-103.2,73.2-123.4,8.2-11,15.8-17.3,29.5-13.1,24.8,14.6,37.6,55.5,81.9,81.4,22.2,7.6,53.1,14.5,40.2-23.6-15.4-45.7-68.7-81-105.1-112-19.4-16.4-38.3-33.4-56.7-51-28.6-28.1-75.8-85.3-55.5-128.2,18.3-38.7,83.8-80.3,114.6-111.9,12.6-13,37.2-33.6,53.1-39.4Z"/>
        <path class="cls-8" d="M2062.9,816.8c10.9,4.1,16.5,6.6,26.9,11.9,29.3,14.6,61.9,34,93.2,40.9,11.2,2.5,21.2-1.3,32.7,1.2,4.3,11.7,2.6,17.1,1.2,29.6l-9.4,20.9c-18.6,33.4-39.6,62-74.4,79.5-51.5-3.6-72.6-63.2-107.2-77.9l4.9-1.7c1.3-7.4,1.6-7.2-1-13.9-24.6-23.8-92.4,60.6-87.8,96.5,11.6,89.6,242.9,179.7,200.9,272-21,9.5-31.7,29.3-58,16.8-6.8-3.2-8.3-3.6-12.7-9.6,22.2,7.6,53.1,14.5,40.2-23.6-15.4-45.7-68.7-81-105.1-112-19.4-16.4-38.3-33.4-56.7-51-28.6-28.1-75.8-85.3-55.5-128.2,18.3-38.7,83.8-80.3,114.6-111.9,12.6-13,37.2-33.6,53.1-39.4Z"/>
        <path class="cls-36" d="M2089.8,828.7c29.3,14.6,61.9,34,93.2,40.9,11.2,2.5,21.2-1.3,32.7,1.2,4.3,11.7,2.6,17.1,1.2,29.6l-9.4,20.9c-16.7,4.3-25.4-2.6-46.1,8.5-1.9,5.1-4.8,13.5-10.9,13.8-20.2.9-44.5-26.7-59.7-38.6-20.2-17.7-34.7-6.8-45-13.2l.9-2.4-1.1,1.5c6.7-6.3,11.4-3.1,16.9-10.6,0-6.3.3-4.1-5-10.1,7.6-18.2,23.2-21.6,26.4-39.3l6-2.2Z"/>
        <path class="cls-12" d="M2209.5,901.6l1,1-.6,6.1c-2.7,1.9-47.4,7.8-58.6,10.8l-3.1-1.2-.9-3.7,2-2.6c12.8-5.3,44.9-8.5,60.2-10.3Z"/>
        <path class="cls-28" d="M2057.4,870.2c5.3,6,5,3.8,5,10.1-5.5,7.4-10.1,4.3-16.9,10.6l1.1-1.5-.9,2.4c10.4,6.5,24.8-4.5,45,13.2,1.1,7.5,8.5,14.6,14,22.1-15.2-8.1-28.1-19.4-44.4-28.4-9.1.8-12.5,2.3-18.4-5.2,1.9-5,1.7-3.1,1.5-8.3-7.5-3.1-7.9,2.8-14.1.7l27.9-15.7Z"/>
        <path class="cls-4" d="M2085.2,1389.9c-35.4,37.6-117.3-38.5-154.8-47.7-8.4-2-17.8.5-26.3.9-7,.3-11.4-.4-16.6-5.2-6.5-22.3,58.2-103.2,73.2-123.4,8.2-11,15.8-17.3,29.5-13.1l-8.4,1.8c-1.9,5.9,8.1,17.8-2.7,41-8,17.4-24.3,45.7-29.3,62.4,26.6,24.3,117.8,58.2,130.3,73.1-.8,7.4-1.4,6-6.7,13,3.7-1,8-2.3,11.7-2.9Z"/>
        <path class="cls-12" d="M2000,922c1.6.6,3.2,1.3,4.8,1.9,5.3,12.5-3.3,42,.5,53.4,29.7,89.3,127.7,140.7,181.7,214.2,13.4,18.2,9.3,39-8.7,50.4l-4.6-1.9c-.9-7-3.1-27-6.3-32.5-28.4-50.6-77.7-82.7-117.7-122.8-27.6-27.6-80-76-75.9-118.7,1.7-17.2,13.1-33.5,26.1-44.1Z"/>
        <path class="cls-12" d="M401.2,950.9c2.3.7,4.6,1.4,6.9,2.1,8.6,16.3-.8,56.7,5.6,71.6,50.1,116.9,193,176.4,276,269.8,20.6,23.2,16.6,51.5-7.7,68.4l-6.6-2.1c-2-9.3-6.9-35.9-11.8-42.9-44.7-65.1-117.1-103.5-177.3-153.3-41.5-34.4-119.9-94.3-117.9-151.9.8-23.3,15.4-46.1,32.9-61.6Z"/>
        <path class="cls-22" d="M2893.9,932.4c6.9-5.3,18.6-12.2,26.7-16.3,50.6-25.5,94.5-64.5,144.1-90.4,19.5-10.2,68.7,11.3,88.8,19.1,22.2,3.1,31.9,3.2,53.1-6.2,12.3-5.4,16-6.6,26,2.1-4.6,43.7-18.8,74.8-37,114.2-3.5,7.6-13.3,29.9-18.6,34.9-31,29.1-97-20.5-122-40.4-10.1-8-18.9-19.6-27.8-27.9l-1.1-1c-67.7,75.2-48,249,25.2,316.7,22.4,20.7,65.3,35,95.5,27.2,23.3-4.3,61.5-21.6,74.8-19,2.4,2.2,3.9,2.6,4,5.5,0,13.8-28.9,61.4-36.9,71.9-19.4,36.1-28.2,42.3-50.7,71-2,1.6-7.3,4.9-9.9,5.1-122.2,12.3-223.3-74.9-255.1-189.1-21-75.5-15.5-139.8,1.7-214.6,4.7-20.2,9.6-45,19.3-62.6Z"/>
        <path class="cls-9" d="M2893.9,932.4c6.9-5.3,18.6-12.2,26.7-16.3,50.6-25.5,94.5-64.5,144.1-90.4,19.5-10.2,68.7,11.3,88.8,19.1-11.4,3.4-16.7,1.1-24.6,3.4-7.6.6-8.9.3-16.1-2.2-32.7,8.7-51.6,33.7-76.4,44.4-34.9,15.1-78.8,24.8-98.4,64.3-20.3,41-30.9,129.7-29.6,173.7.6,22.5,4,44.9,9.9,66.7,16.3,58.9,49.8,110.6,103.8,140.6,26.6,14.8,55.9,15.4,83.9,25.4,8.8,3.2,10,23.5,12,31.5,6.6.3,13.2.6,19.8.9-2,1.6-7.3,4.9-9.9,5.1-122.2,12.3-223.3-74.9-255.1-189.1-21-75.5-15.5-139.8,1.7-214.6,4.7-20.2,9.6-45,19.3-62.6Z"/>
        <path class="cls-2" d="M3025.9,920.5c6.1-20.8,24.4-17.9,40.8-10.6,34.3,15.2,52.8,36,92,37.2-1,4.7-3.3,4-5.1,7.6-.5,1.1,7.1,27.1,7.7,31.3.5,3.2.1,2,2.1,4.9,17.4-8.7,14.3-28.8,32-35.9-3.5,7.6-13.3,29.9-18.6,34.9-31,29.1-97-20.5-122-40.4-10.1-8-18.9-19.6-27.8-27.9l-1.1-1Z"/>
        <path class="cls-28" d="M3146.6,1264.3c23.3-4.3,61.5-21.6,74.8-19,2.4,2.2,3.9,2.6,4,5.5,0,13.8-28.9,61.4-36.9,71.9-.3-13.8,23.7-52.4,30.9-70-4.4-1.1-14.2,1.1-19.4,1.8-15.6,21-36.4,31.7-59.4,43,11.7-13.8,23.6-22.8,37.9-33.7-13.3,1.2-18.6,1.2-31.9.4Z"/>
        <path class="cls-28" d="M3153.4,844.9c22.2,3.1,31.9,3.2,53.1-6.2,12.3-5.4,16-6.6,26,2.1-20,1.9-15.3,11.1-31.2,17-1.3-3.6-.7-1.6-1.4-6-39.1,14.2-31.5,27-71.1-3.5,7.9-2.3,13.2,0,24.6-3.4Z"/>
        <path class="cls-12" d="M2986.6,922.5l1.4,1.5c-.2,5.9-25.6,38.4-28.7,53.8-14.7,72.7-4.4,150.3,25.4,218.1,12.3,28.1,30.6,49.2,44,75.1l-.9-1.6-2.8.2c-21.1-22.3-30.6-36.6-45.3-63.1-2.4,1.4-1.7,1.9-3.3,5.6,2.5,15.4,33.5,55.2,44.7,68.4-81.7-55.9-100.6-207-80.2-295.7,5.4-23.7,24.6-50.1,45.7-62.2Z"/>
        <path class="cls-27" d="M2696.5,98.7c12.4-8.1,36.1-27.9,48.4-11.9,2.8,12.7-3.1,21.6-8.8,33.2-32.4,79,93.4,99.1,79.9,193.3v8.1c-1,13.9-1.4,24.4-6.6,37.7-2.4,5.6-8.6,18.8-9.2,24.1,9.5-5.1,21.5-28.6,25.5-39,3-8.6,4-12.6,6.1-21.2,2.6-10.8-.3-36.8,4.5-42.7,22.8-9.7,52.9,45.6,59.3,62.5,13,34.9,11.6,73.5-3.9,107.4-20.7,45.2-63.4,80.9-109.2,99.5-7.3,3-14.9,4.3-22.4,1.2-5.2-9-.4-17.1,5.4-25,12.8-17.4,26.4-32.2,37.6-50.9-34.1,17-62.2,27.5-74.8,66.3-5.6,17.1-15.9,14.4-28.5,6.4-1.4-3.1-.9-2.5-2.8-5-14.9-19.2-23.5-34.8-31.8-57.6-8-60.3,21.6-81.1,46-133.2,13.7-29.4,9.2-47.8-1.2-76-.1,11.4-.2,20.3-1.3,31.7-4.1,23.1-8.6,40.5-21.7,60.5-10.7,15.7-22.3,29.1-34.2,43.8-9.8,12-10.8,19.3-11.7,34,1.4,5.9,3.1,14.6,5,20.1,2.6,11,6.7,18.6,11.6,28.7l1.2,2.4c12.8,16.9,22.2,37.2,31.3,56.3-13,6.8-36.8-6.5-48.7-13.4-69-39.7-136.7-108.9-113.1-195.4,6.3-23,32.5-75.3,61.9-64.7,9,13.9,2.6,23.2,3.4,39.7,9.5,8.8,11,12.7,24.6,11.4,19.5-30.3-3.4-48.7-9.8-79.2-13.3-63.8,36.1-123.4,88.2-153.3Z"/>
        <path class="cls-42" d="M2695.5,237.8c-1.2-1.2-2.4-2.3-3.6-3.4l-1.6-1.6c-8.5-8.6-14.3-23.8-17.6-35.3,3.1-20.4,19-47.8,29.8-65.5,7.1-11.8,10.7-17.8,24.6-20.3,3.2-3.3,4.3-5.3,8.7-6.5l.4,14.9c-32.4,79,93.4,99.1,79.9,193.3v8.1c-1,13.9-1.4,24.4-6.6,37.7-2.4,5.6-8.6,18.8-9.2,24.1-6.7,6.4-12.3,12.6-18.5,19.4-4.7,13.1-7.6,31-23.1,32.4-19.8-14.7,6.1-73.3,7.9-96.5,1.4-18.9,3-18.2-.4-39.4-3.4-5.4-7.4-14.5-10.2-18-10.8-13.3-27.2-23.6-40-34.2-11.2-9.2-3.5-6-20.5-9.2Z"/>
        <path class="cls-41" d="M2684.4,205.7c-.2-26.9,1.8-34.6,16.3-57.3,5.9,56.4,24.9,66.9,60.2,109.4,17.6,21.2,23.6,46,51.1,57.4,2.5-.9,1.5-.1,3.1-2.5l1,.7v8.1c-1,13.9-1.4,24.4-6.6,37.7-2.4,5.6-8.6,18.8-9.2,24.1-6.7,6.4-12.3,12.6-18.5,19.4-4.7,13.1-7.6,31-23.1,32.4-19.8-14.7,6.1-73.3,7.9-96.5,1.4-18.9,3-18.2-.4-39.4-11.1-57-49.4-48.6-81.7-93.4Z"/>
        <path class="cls-13" d="M2781.8,402.6l-6.9,4.1c-19.4-14.1-4.5-68.6,12-82.7,8.5,3.6,12.1,5.6,21.4,4.9,2,4.8,1,22.9,1.3,30.3-2.4,5.6-8.6,18.8-9.2,24.1-6.7,6.4-12.3,12.6-18.5,19.4Z"/>
        <path class="cls-7" d="M2690.1,553.5c-13,6.8-36.8-6.5-48.7-13.4-69-39.7-136.7-108.9-113.1-195.4,6.3-23,32.5-75.3,61.9-64.7-11.4,7.9-1.5,12.5-11.6,27.4-16.2,23.8-3.9,67.6,1.1,93.3,7.4,33,23.5,70.8,51.9,90.7,6.7,4.7,19.6,9.3,27.4,5.7,12.8,16.9,22.2,37.2,31.3,56.3Z"/>
        <path class="cls-7" d="M2618.1,331.2c19.5-30.3-3.4-48.7-9.8-79.2-13.3-63.8,36.1-123.4,88.2-153.3,3.7,1.8,5.4,2.6,9.4,3.2.2,1.1.3,2.1.5,3.2-12.9,17.9-21.9,36.8-31.2,56.9-7.1,15.3-14.4,34.9-19.4,51.3-5.7,38.6,11.5,83.1-8.8,118.8-2,3.6-8.1,7-12.3,7.3-7.8.6-13.7-.3-16.7-8.2Z"/>
        <path class="cls-13" d="M2684.1,261.5l.8-3.8c9,19.6,3.1,35.9,16.3,48.7l7.5,1.4c-4.1,23.1-8.6,40.5-21.7,60.5-10.7,15.7-22.3,29.1-34.2,43.8-9.8,12-10.8,19.3-11.7,34,1.4,5.9,3.1,14.6,5,20.1,2.6,11,6.7,18.6,11.6,28.7-38.2-2.8-60.5-50.2-63.8-84.7-4.2-43.5,33.1-34.8,56.1-62.4l1.6-1.9c25.3-24.5,22.7-52.3,31.9-82.3l.6-2Z"/>
        <path class="cls-42" d="M2616.9,396.4c12.4-12.1,42.6-39.8,58.9-44.3,5.6,2.3,8.2,10.1,11.2,16.2-10.7,15.7-22.3,29.1-34.2,43.8-9.8,12-10.8,19.3-11.7,34-.4-.7-1.8-7.6-2.1-8.9-5.2,2.6-5.8,2.6-11.5,3.9-17.2-6.9-12.9-29.5-10.5-44.7Z"/>
        <path class="cls-42" d="M2651.5,345.8c3.8-12.4,12.4-28.1,15.2-42.2,3.8-19.4-1.1-43.1,10.2-59.8,2.2,1,5,13.2,7.2,17.7l-.6,2c-9.2,30-6.6,57.8-31.9,82.3Z"/>
        <path class="cls-41" d="M2859.5,363c23.7,14.7-2.7,59.5-13.1,76.4l-2.8.5-2.7-2.7c-1.9-16.8,12.5-56.9,18.5-74.3Z"/>
        <path class="cls-31" d="M2562.3,819.5l6.3.9,4.3,1.8c5.4,19.1-7.2,98.6-21.1,117.7-8.3,11.4-7.7,11-19.4,19.4-18.7,13.7-50.4-6.5-73.6-9.3-5.8,8.3-4,84.4-4.1,98.7l-.6,145.2c0,34-.2,68.7,4.1,102.4,3.6,27.8,25.4,46.5,37.2,70,1.5,2.9-3.9,8.7-5.5,10.6-25.8,7.4-41.1,1.5-66.3-2.6-35.4-5.7-71.3,1.4-106.4,5.6-8.9,1.1-16.5.1-23.4-5.8-2.5-11,31.4-52.2,32.7-74.7,3.1-54.8,3.3-110.9,3.1-165.7-.3-70.5-4.8-127.4,16.3-195.9-28.8,3.8-38.5,5.6-65.7,15.7-26.4,11.2-64.2,56.3-58.2-11.8l10.6-71.3c6.9-54.1,26.3-42.9,73.8-35,28,1.4,56.7,5.3,85.4,6.5,63,2.7,110.7-5.1,170.4-22.2Z"/>
        <path class="cls-1" d="M2278.1,950.3l2.7-1.2c41.7-19.6,54.6-50.8,95.6-7.9,7.7,28.7,4.2,57.9,2.1,87.2-6,84.6,6.6,170.5-1.1,254.9-5.2,57.6-20.4,43.7,36.7,52.6,16.6,2.6,57.6,33,76,41-25.8,7.4-41.1,1.5-66.3-2.6-35.4-5.7-71.3,1.4-106.4,5.6-8.9,1.1-16.5.1-23.4-5.8-2.5-11,31.4-52.2,32.7-74.7,3.1-54.8,3.3-110.9,3.1-165.7-.3-70.5-4.8-127.4,16.3-195.9-28.8,3.8-38.5,5.6-65.7,15.7l-2.2-3Z"/>
        <path class="cls-4" d="M2232.7,870.1c6.9-54.1,26.3-42.9,73.8-35-13.1,1.1-19.8.8-32.9.1,2.8,9.1,4.5,14.3,3.7,25.4-2.2,29-33.9,64.1-3.2,88.4,1,.8,2.8.9,4,1.1l2.2,3c-26.4,11.2-64.2,56.3-58.2-11.8l10.6-71.3Z"/>
        <path class="cls-22" d="M2562.3,819.5l6.3.9c.9,8.9,2.2,15-3.3,22.4-1.9,1-12.6,6.2-13.5,7.6-8.5,14.4-14.8,54.3-34.7,57.3-4.8-1.5-8.3-4.3-10.5-8.5-6.6-12.7,26.8-28.8,32.1-37.4,3.7-6,7-16.5,9.3-23.3,10.7-6.8,11.6-6.9,14.2-18.9Z"/>
        <path class="cls-28" d="M2458.8,950c18.3-1.3,24.3,3.1,37.6-6.1,17,1.5,2.8,15.2,36,15.4-18.7,13.7-50.4-6.5-73.6-9.3Z"/>
        <path class="cls-12" d="M2428.7,922c5.1,11.1-2.7,62-3.4,78.3-2.6,79-3.6,158-2.9,237.1.3,26,1.2,49,8.7,74.2,1.6,5.5,3.2,9.6,2.4,15.2l-3.2,2.3c-7.8-1.6-17.8-8.3-21.1-15.4-3-21.3-4.9-42.7-5.7-64.2-1.8-40.1-5.5-285.9,6.9-310,1.1,8.4.4,14.9,4.7,21,7-3.1,5.4-27.8,13.7-38.4Z"/>
        <path class="cls-12" d="M2735.2,1237.8c-5.6-13.3-.3-75.6-.5-95.5-1.3-96.3,8.5-203.1,4-299.4-1.6-31.7-61-69.1-61-100.2-.3-10.2,14.5-24.3,27.7-30.4,9.1-4.2,23.4,5.3,33.8,8.3l13.7-9.3c11.6-4.1,21.7.2,31.4,7.1,14.4,10.2,24.2,22.9,25.7,29.1,4,25.8-46.2,60-44.3,86.1-2.5,52.1-7.5,341.5-7.2,351-2.9,9.1-6.3,6.3-12.9,11.7-6.9,4-2.8,28.2-10.5,41.5Z"/>
        <path class="cls-43" d="M3202.6,236.5c2.2-6.8,3.3-13,8.8-17.5,18.5-1.6,27.3,41,27.2,55.1.9,25.2,1.9,52.7-12.3,75-6.4,9.3-11,13.7-18.7,21.7-8.9,8.9-18.2,17.7-26,27.6l3.2,1c10.5-6,20.2-14.7,29.5-22.4,6.7-5.5,12-9.2,19.1-14.1,5.5-3.1,8-5.1,14.4-5.3,4.8,3.6,6.2,6.1,6.6,12.5,2.1,33.2-3.9,62.7-28.5,86.7-7.1,5.4-15,11.8-22.7,16.2-5.7,3.3-8.4,5.2-13.7,9.2l1.1-.4-2.7,5h-1.4v.3c9.4,2.1,41.3-16.7,56.4-19.2,2.8,43.3-39.1,71.8-68.7,94.8,4.8,5.3,11.7-3.9,13.4,9.6-13.6,34.1-74,56.1-109.2,49.5l-4.7,2.2.7,2.3c6.2,2.6,16.2,6,20.2,10.8-1.1,14-46.6,21-59.7,24-4.7-1.8-17.9-6.5-21.8-8.6-5.4-1.5-9.2-3.8-13.3-2.1,5.5,6.2,8.2,7.3,8.3,14.2-15.8,18.9-55.2-4.9-69.9-17.5-6.2-7.4-12.3-9.9-20.7-14.5-6,6.2-2,10.3-4.1,19.3l-1.8-2.2c-.2-8.1,1.2-8.4-2.6-13.7-14.8,1-34.1,36.8-54.3,29.7-.2,0-3.8-.3-4-.3-62.1,3.1-129.2-7-191.5-12.3-18.5-1.6-34.7-6.2-51.1-9.1-9.3-1.7-29.3,2.2-45.6-.5,62.3-6.6,78.9,5.8,136.1,6,60.9.3,119.8-5.5,182.4-6.4.3-10.9-3.9-12.6-5.9-21.9-9.8-44.3,32.2-65.4,48.4-89.2,22.4-32.8,14.8-74.2,48.7-108.3,27.4-27.6,41.7-31.7,75.1-49.2,72.9-38.2,117.9-64.7,155.2-137.8Z"/>
        <path class="cls-4" d="M3202.6,236.5c1.9,33-6.3,61-29.3,86.3-22.7,25.1-62.2,48.6-89.5,69.1-16.8,12.6-57.8,14.5-72.5,37.1-23.7,25.6-29,61.3-42.3,92.1-7.9,18.3-27,37.1-37.1,54.5-15,25.8-22.8,51.6-50.8,67.3.3-10.9-3.9-12.6-5.9-21.9-9.8-44.3,32.2-65.4,48.4-89.2,22.4-32.8,14.8-74.2,48.7-108.3,27.4-27.6,41.7-31.7,75.1-49.2,72.9-38.2,117.9-64.7,155.2-137.8Z"/>
        <path class="cls-28" d="M3202.6,236.5c2.2-6.8,3.3-13,8.8-17.5,18.5-1.6,27.3,41,27.2,55.1-5.1-16-11.1-33.5-17.7-49,1.2,9.1,3.2,21.1,3.8,30-40,76.9-54.4,116.5-141.8,155.6-26,11.6-48.1,20.7-68,41.5-25.2,26.2-26.1,56.1-40,86.8-5.4,11.9-26.4,30.4-35.2,44-2.1,2.4-22,48.8-22,49.5-6,6.2-2,10.3-4.1,19.3l-1.8-2.2c-.2-8.1,1.2-8.4-2.6-13.7-14.8,1-34.1,36.8-54.3,29.7-.2,0-3.8-.3-4-.3-62.1,3.1-129.2-7-191.5-12.3-18.5-1.6-34.7-6.2-51.1-9.1-9.3-1.7-29.3,2.2-45.6-.5,62.3-6.6,78.9,5.8,136.1,6,60.9.3,119.8-5.5,182.4-6.4,28-15.7,35.8-41.5,50.8-67.3,10.1-17.4,29.2-36.1,37.1-54.5,13.3-30.8,18.6-66.5,42.3-92.1,14.6-22.6,55.6-24.5,72.5-37.1,27.4-20.5,66.8-44,89.5-69.1,23-25.3,31.2-53.3,29.3-86.3Z"/>
        <path class="cls-22" d="M2917.7,632.4c0-.7,19.9-47.1,22-49.5,15.1,9.1,114.6,25.7,137.5,34.2.4,1.6.9,3.1,1.3,4.7l-4.7,2.2.7,2.3c6.2,2.6,16.2,6,20.2,10.8-1.1,14-46.6,21-59.7,24-4.7-1.8-17.9-6.5-21.8-8.6-5.4-1.5-9.2-3.8-13.3-2.1,5.5,6.2,8.2,7.3,8.3,14.2-15.8,18.9-55.2-4.9-69.9-17.5-6.2-7.4-12.3-9.9-20.7-14.5Z"/>
        <path class="cls-28" d="M2938.4,646.9l11-.6c2.8-6.9,4.1-13.8,9.4-17.6,15-3.6,48.9,11.4,54.5,23.6-5.4-1.5-9.2-3.8-13.3-2.1,5.5,6.2,8.2,7.3,8.3,14.2-15.8,18.9-55.2-4.9-69.9-17.5Z"/>
        <path class="cls-22" d="M3233.4,362.9c5.5-3.1,8-5.1,14.4-5.3,4.8,3.6,6.2,6.1,6.6,12.5,2.1,33.2-3.9,62.7-28.5,86.7-7.1,5.4-15,11.8-22.7,16.2.6-6-.4-19.5.4-23.8,2-9.9,10.7-23.7,14.4-34.2,5.5-15.5,7.7-21.1,1-36.2l-4.9-1.8c6.7-5.5,12-9.2,19.1-14.1Z"/>
        <path class="cls-12" d="M3181.6,398.3l-3.7,1.9c-6.3-10.7-1.2-35.4,10.7-40.2,4.1,2.4,6,3.9,10.6,4.9,2-2,.8-1.1,3.8-2.4l4.6,8.2c-8.9,8.9-18.2,17.7-26,27.6Z"/>
        <path class="cls-33" d="M1857.6,1356.5c-11.4,52.9-33.9,38.1-74,26.8-51.5-14.4-103.2-8.5-155.2-2.8-10.1,1.1-49.9,5.3-55.2-1.8-1.6-20,35.3-50.5,39.3-71.4,13.2-68.1,8-141.1,8.3-210.5.3-62.2,2.5-125.8-6.3-187.1-2.4-16.9-40.2-44.6-34.4-58.3,12-9.8,52.5-19.5,70.7-25.2,31.2,18.7,61.2,25.8,97.1,23.2,10.2-3.3,18.4-6,28.8-2.4,5.2,5.2,3.7,2.2,5.1,9.3-8.9,24.1-38.7,48.2-41.8,74.1-9.8,82.6,3.3,167.8-3,250.9-1,12.6-1.6,25.2-4.7,37.4-2.2,9.6-15,36.8-14,44.2l4.6,5.6c41.2-2.7,72.2-4.9,112-18.5,23.2-7.9,46.4-38.5,65.4-38.2,13.4,7.5,5.4,24.6,0,35.7-5.8,13-12.9,28-17.1,41.4-7.7,22.3-16.1,45.8-25.6,67.4Z"/>
        <path class="cls-46" d="M1857.6,1356.5c-11.4,52.9-33.9,38.1-74,26.8-51.5-14.4-103.2-8.5-155.2-2.8-10.1,1.1-49.9,5.3-55.2-1.8-1.6-20,35.3-50.5,39.3-71.4,13.2-68.1,8-141.1,8.3-210.5.3-62.2,2.5-125.8-6.3-187.1-2.4-16.9-40.2-44.6-34.4-58.3,12-9.8,52.5-19.5,70.7-25.2,31.2,18.7,61.2,25.8,97.1,23.2-9.2,4.9-18.7,10.2-28.1,14.6-40.1-11.1-38.2-25.3-72.1,8,5,17.1,15.5,40,17.4,56.5,6.4,57.5,3.9,117.4,4.2,175,.4,76.8,3.2,152.2-11.9,227.8,1.6,1.2,3.1,2.4,4.7,3.6,18.1,6.8,47.9-1,65.8.6,11.9,1.1,23,8.4,38.8,8.6,5-2.6,5-2.7,9.3-6.5,25.1.6,56.1,32.8,70.2,30.1l2.3-2.7c2.9-3.2,5.5-6.1,9.1-8.6Z"/>
        <path class="cls-28" d="M1722.9,1268.7c41.2-2.7,72.2-4.9,112-18.5,23.2-7.9,46.4-38.5,65.4-38.2,13.4,7.5,5.4,24.6,0,35.7l-1.6-4.3c-8.8.4-29.4,19.9-36.7,26.3-9.7,4.7-37.1,30.4-43.7,29.2,6.4-7.1,13.4-6.6,16.5-13-7.8-11.7-38.3-14.7-51.8-14.2-9.5.3-33.2,6.1-40.7,4.1,4.5-1.4,7.4-1.3,9.9-4.3-5.3-1.6-22.2-2-29.5-2.9Z"/>
        <path class="cls-12" d="M1862.1,1269.8c7.3-6.4,27.9-25.9,36.7-26.3l1.6,4.3c-5.8,13-12.9,28-17.1,41.4-3.6,3.4-7.1,6.8-10.5,10.3-23-1.6-45.2,37.1-59.2,33-6.7-21.4,40.4-41,48.6-62.6Z"/>
        <path class="cls-12" d="M677.4,909.3c14.9-11.7,20.2-35.7,28.1-50.1l10.8-2.7c8.8-2.2,17.1,4.8,16.6,13.8s1.7,23.6,1.5,35.5-2.8,16.5-7.6,23.3c-6.1,8.6-15.2,24.4-22.6,36.3-6.1,9.9-17.6,15.1-29.1,13.4-37.4-5.6-64.1-21-71.9-42.4,2.7-24.2,45.9-19.6,74.2-27.2Z"/>
        <path class="cls-12" d="M1717,888.5l1.2.4c-3.7,3.7-10.2,5.7-15.4,7.9.5,36.3-12.2,400.8-17.2,410.3-15.8-23.4-1.4-112.1-.4-143.1,2.8-86-5.9-183.3,9.9-267.8l21.9-7.7Z"/>
        <path class="cls-37" d="M3457.5,1171.3c28.5-7.9,108.4-124.8,123.5-153.7,11.1-20.9,19.3-43.2,24.5-66.3,10.8-49.4-5.8-56.7-31.9-94.9-4.2-6.2-7.1-13-5.2-20.5,10.3-13,39-7.6,54.9-7.4,34.5.3,69,.2,103.5-.2,24.9-.4,42.3,1.7,64.7-9.4,6.9-3.4,14.1.8,20.8,4.2,2.2,2.9,8.9,11.9,6.6,15.7-55.5,91.2-103,190.7-176.4,269.3-6.4,6.9-19.6,21.9-27.3,25.1l-4.7,1c-4.4,7,2,16.4-1.9,29.5-.7-11.5-2.8-58.1-10.2-64.9l-5.4,2.4,2.8-14.5c-21.3,21.5-47.8,88.5-74.3,97.5-13.7-3.1-18.3,5.6-30.7,8.3-23.4,5.2-23.3-9.8-31.9-20.7l-1.3-.4Z"/>
        <path class="cls-22" d="M3667.3,871.7c25.7-.3,53.1.5,77.3-8.8,7.7-3,16.5-6.4,24.1-11.7,11-7.6,22.5-20.4,33.2-28.6,4.1.1,7.5.3,10.4.4,2.2,2.9,8.9,11.9,6.6,15.7-55.5,91.2-103,190.7-176.4,269.3-6.4,6.9-19.6,21.9-27.3,25.1l-4.7,1c-4.4,7,2,16.4-1.9,29.5-.7-11.5-2.8-58.1-10.2-64.9l-5.4,2.4,2.8-14.5c1.3-2.7,25.9-35.9,29-40.6,27.6-41.6,42.6-90.7,30.5-140-3.8-15.6-8.5-25.8-2.3-32.8,6.2-2.6,7.7-2,14.3-1.5Z"/>
        <path class="cls-32" d="M3757.5,866.9c8-5.1,20-9.6,29-13.4-7.9,7.8-16.4,16.9-25.9,22.4-25.9,26-60.2,95.8-85.7,131.6-18.3,25.6-45.1,54.3-60.6,76.3-1.7,17.5,2.9,41.6.9,49.3l-4.7,1c-4.4,7,2,16.4-1.9,29.5-.7-11.5-2.8-58.1-10.2-64.9l-5.4,2.4,2.8-14.5c1.3-2.7,25.9-35.9,29-40.6,27.6-41.6,42.6-90.7,30.5-140-3.8-15.6-8.5-25.8-2.3-32.8,6.2-2.6,7.7-2,14.3-1.5,6,2.2,25.3,3.1,35,7.1,14.4,5.9,40.7-5.9,55.1-11.9Z"/>
        <path class="cls-12" d="M3757.5,866.9c8-5.1,20-9.6,29-13.4-7.9,7.8-16.4,16.9-25.9,22.4-12.9,5-24.3,9.3-37.4,13.6,11.5-8.6,22.6-13.4,34.4-22.6Z"/>
        <path class="cls-40" d="M1685.1,1442.1c41.8-7.4,131-3.9,173.6,5.2,5.5,1.2,13.5,6.3,18.3,9.4,17.7,13.7,14.1,32.1,5.3,50.4-6.3,4.1-17.6,10.3-21,16.2-.2,9.7,1.2,7.9,8.2,13.6,16.1,13,7.4,28.1,25.2,44.2l5.5,5,.5,3.5c-4.3,4.8-6.4,5.3-12.1,8-19.1,9-70.7,10.5-82.8-12.7-7.2-13.9,6.1-39.3-21.2-40.3-19.8,21.5,6.6,34.9,4.6,53.8-6.4,7.4-33.7,5.3-43.2,3.3-17.8-4.2-49.5,7-57-5.7,0-10.8,7.3-18.3,13.7-27.2-.8-33.2,3.2-70.3-1.9-102.5-7.8-6.8-10.4-6.7-17.3-15.3-1-6.1-1.4-3.2,1.8-9ZM1769.4,1486.9c.2,7.3,1.5,10,7,15.3,3.9,3.7,7.9,7.2,12.2,10.4,12.4-6.5,29.4-19.5,18.4-34.1-6.3-8.3-15.8-8.6-25.2-10.3-3.6,5.9-7.8,14.2-12.5,18.8Z"/>
        <path class="cls-27" d="M1736.3,1555.3c1.5-17.6-2.2-72.2,5.4-89.1,2.3-5,38.7-11.6,47.6-2.3-6.3,1.6-4.2-.2-7.5,4.3-3.6,5.9-7.8,14.2-12.5,18.8.2,7.3,1.5,10,7,15.3,3.9,3.7,7.9,7.2,12.2,10.4l1.4,1c-4.8,10.4,3,21.4-5.3,29.7l-.3,1.4c-19.8,21.5,6.6,34.9,4.6,53.8-6.4,7.4-33.7,5.3-43.2,3.3-5.2-13.8-7.2-31.8-9.5-46.6Z"/>
        <path class="cls-13" d="M1751.5,1549c-1.5-14.7-6.9-46,1.2-58.5,3.1-4.8,8.6-5.2,14-6l2.8,2.4c.2,7.3,1.5,10,7,15.3,3.9,3.7,7.9,7.2,12.2,10.4l1.4,1c-4.8,10.4,3,21.4-5.3,29.7-6,0-26.2,4.4-33.3,5.7Z"/>
        <path class="cls-42" d="M1876.9,1456.7c17.7,13.7,14.1,32.1,5.3,50.4-6.3,4.1-17.6,10.3-21,16.2-.2,9.7,1.2,7.9,8.2,13.6,16.1,13,7.4,28.1,25.2,44.2l5.5,5,.5,3.5c-4.3,4.8-6.4,5.3-12.1,8-20.4,1.4-30.8-15.9-44-29.7-9.3-9.7-25.2-33.5-17.1-47.1,8.4-14,7.1-36.3,19.8-45.7l7.8-1.6c6.7-1.4,7-.8,11.9-5.9.8-4,1-5.1,2.5-9l7.5-2Z"/>
        <path class="cls-41" d="M1845.9,1485.5c4.3,1.3,3.2,1,7.2,3.5,2.2,6.6-5,16.5-5.4,23.2-.9,14.3,6.9,30.5,2.6,44.6-25.8-18.5-14.3-47.2-4.4-71.3Z"/>
        <path class="cls-7" d="M1685.1,1442.1c10.5,1.5,22.1,2.1,31.6,3.5,4.6,5.6,9.1,11,13.4,16.9.9,18.4-1.8,83,6.2,92.8,2.3,14.8,4.3,32.8,9.5,46.6-17.8-4.2-49.5,7-57-5.7,0-10.8,7.3-18.3,13.7-27.2-.8-33.2,3.2-70.3-1.9-102.5-7.8-6.8-10.4-6.7-17.3-15.3-1-6.1-1.4-3.2,1.8-9Z"/>
        <path class="cls-27" d="M1027.2,1439.6c7.8-.1,16.7-.5,24.4-.3,14.8,13.4,56,60.4,70.9,63.3l1.6-1.5c-1.2-15.8,4.1-31.4-11.6-40.8-5.4-3.3-10.5-7.6-8.5-14.1,12.1-9.1,55.4-6.5,72.1-6.4,10.5-.2,14.3-1,24.2,2.9,4.3,21.5-21.2,13.7-21.1,44.6.9,13.4,2.5,101.5.2,109.7-1.7,1.8-2.7,3.4-4.7,4.2-43.5,19.1-77.5-33.7-104.7-62.3-5.1-4.1-7.3-6.7-13.8-7.4-10.2,6.7-1.7,29.6-6.6,43,8.3,5.6,25.7,16.3,31.2,23.5-5.8,4.8-7.5,6-15.3,5.2-5-.5-10-1.2-15-1.9-23.6-2.7-48.2,5.5-65.6-.7-10.8-11.3,3-20.3,11.7-28.6-.9-28.6,2.3-71.9-1.9-100.1-.7-4.9-15.7-16.4-21-24.6l1.3-3.1c12.2-6.6,37.4-4.7,52.1-4.5Z"/>
        <path class="cls-7" d="M996.7,1572c-.9-28.6,2.3-71.9-1.9-100.1-.7-4.9-15.7-16.4-21-24.6l1.3-3.1c12.2-6.6,37.4-4.7,52.1-4.5l10.9,2.5c-8.3,1.2-22.1-.4-27.5,1.9,7.7,2.2,13,6.1,16.1,14.2,5.9,15.3,12.5,33.1,12.9,49.7-.7,19.6-29,75.7-3.2,88.9,2.6,1.3,8-1.3,14.2,4.5-23.6-2.7-48.2,5.5-65.6-.7-10.8-11.3,3-20.3,11.7-28.6Z"/>
        <path class="cls-42" d="M1200.3,1442.8c4.3,21.5-21.2,13.7-21.1,44.6-4.1,6.1-2.3,91.2-2.2,105-.8-1.5-6.2-10.7-6.3-11.3-3.2-11.4-25.8-27.1-29-31.7-11.7-18.8-4.1-28.5.4-50.3,4.9-19.9,18.9-32.8,25.1-54.5,12.1-.2,20.9-.7,33-1.9Z"/>
        <path class="cls-41" d="M1164,1477.8c-3.4,15.5-11.1,64.7-22.3,71.6-11.7-18.8-4.1-28.5.4-50.3,7.2-7.6,13.6-14.8,21.8-21.3Z"/>
        <path class="cls-7" d="M1085.4,1529c13.1.4,20.5.7,33.4,2.8,11.2,14.2,23.1,31.3,30.8,47.8,4,8.6.1,15.1,5.6,21.8,6.7.2,12.7,0,19.4-.2-43.5,19.1-77.5-33.7-104.7-62.3,6.6-3.6,9.4-5.4,15.5-10Z"/>
        <path class="cls-7" d="M1124.1,1501.2c-1.2-15.8,4.1-31.4-11.6-40.8-5.4-3.3-10.5-7.6-8.5-14.1,12.1-9.1,55.4-6.5,72.1-6.4-13.8,6.7-25.7.7-36.7,3.8,3.2,3.6,4.2,3.4,8.8,5.2,2.4,13-12.4,45.1-24,52.3Z"/>
        <path class="cls-42" d="M1080.9,1598c-16.8.3-23.1-1.5-33.4-15.7-9.7-13.3-17.6-29.9-2.1-41.7,2.2,3,1.3,24.6,1.9,32l2.3,1.9c8.3,5.6,25.7,16.3,31.2,23.5Z"/>
        <path class="cls-41" d="M1048.8,1493.4c4.6.1,9.1.5,13.6,1.1,13.7,2,20.4,7.2,28.5,17.8-20.9.2-32,.5-42.1-18.9Z"/>
        <path class="cls-25" d="M1998.4,1463.5c-8.3-7.2-16-12.2-9.2-23.2,5.3-3.6,42.6.1,52.8.3,22.8.5,45.8-.6,68.6-.3-5.8,7.9-10.4,13.4-14.7,22.3,16.8,33.7,28.4,66.2,45.4,98.8,6.2,11.9,26.6,23.3,30.2,36.9-7.5,5.9-19.4,5.7-28.6,4.4-24-3.6-58.4,5.4-80.3-3-8.9-10.7,6.8-18.9,5.1-31.7-6.7-6.4-38.5-3.5-54.5-6.8l-1.8-.4c-3.1,6-6.3,10-5.6,16.5,6.5,11.1,11,11.2,10.4,22.7-12.5,6.3-83.3,3.8-94-3.6,2.3-10.5,12.2-14.3,20.9-19.7,14.5-16.4,43.9-88.7,55.3-113.2ZM2052.5,1531c-2.3-9.3-5.3-19.2-5.2-28.5l-5.4-3.9c-10.7,2.3-21.7,21.8-19.7,31.3l5.3,1.4c6.3.3,19.5,1.5,24.9-.2Z"/>
        <path class="cls-7" d="M2052.5,1531c4.3-1.4,7.3-3.4,11.6-.4,19.1,13.1,42.9,47.4,56.7,66,12.3.8,39.5,3.7,50.7,1.9-7.5,5.9-19.4,5.7-28.6,4.4-24-3.6-58.4,5.4-80.3-3-8.9-10.7,6.8-18.9,5.1-31.7-6.7-6.4-38.5-3.5-54.5-6.8l-1.8-.4c7.3-1.6,14.2-.1,22.5-1.9,6.6-5.4,16.1-13.5,17.9-22.2l-4.2-2.5c-7.7,0-9,0-16.6-2.1l-3.4-.9c6.3.3,19.5,1.5,24.9-.2Z"/>
        <path class="cls-27" d="M2016.2,1600c-9.2.7-34.5-4-39.9-11.3,9-6.1,8.1-13.3,10.4-23.8,2.7-12.7,42.6-73,49.5-77.1,8.2-.1,15.1,6.7,14.8,14.4l-3.6.2-5.4-3.9c-10.7,2.3-21.7,21.8-19.7,31.3l5.3,1.4,3.4.9c7.6,2.1,9,2.1,16.6,2.1l4.2,2.5c-1.7,8.7-11.3,16.8-17.9,22.2-8.3,1.7-15.3.3-22.5,1.9-3.1,6-6.3,10-5.6,16.5,6.5,11.1,11,11.2,10.4,22.7Z"/>
        <path class="cls-7" d="M1922.2,1596.4c2.3-10.5,12.2-14.3,20.9-19.7l7.3,2.8c1.4,6.7-1.2,11.6-5.6,16.8-7.7,1-12.9-1.2-22.7.2Z"/>
        <path class="cls-41" d="M2064.1,1486.6c22.2,4.3,48.6,58.8,44.7,74.8-15.1-7-36.3-54.2-46.2-69.2.5-1.9,1-3.7,1.5-5.6Z"/>
        <path class="cls-45" d="M1457.9,1454.3c-1.2-5.6-2.3-8-.2-13.3,10.3-6.2,123.1-.4,141.7-2,7.2-.6,20.7,0,26.3,5.8,6.6,11.1,17.6,29.6,2.4,39.5-8.7,2.2-21.7-2.7-27.3-9.3-7.7-3.8-47.9-4.7-54.8,3-1.4,8.9-3.1,14.9-1.3,23.6l5.2,4.3c12.9-5.6,46.7-9.7,60.5-5.7,4.8,4.3,5,5.4,5.2,12,2.3,59.5-61.3-4.9-70.8,36.9-1.3,6-1.1,11.9,2.6,16.9,8.5,5.4,21.1,4.6,30.4,2,12.5-3.5,15.2-3.5,27.9-1.7,4.3-4.9,8.2-9.8,13.6-13.4,6.4-3,7.8-4.4,14.9-3.5,10.9,8.9,3,27.5-2.6,37.9-2.5,4.3-5.4,9.7-8.1,13.7-16.1,0-106.5,2.2-116-1.5-12.6-.4-43.4,11-48.9-4.6,1.2-7.5,6.3-11.4,11.7-17.2,3.5-22.1,3.6-89.5.4-114-.6-4.6-8.4-7.5-12.9-9.6Z"/>
        <path class="cls-27" d="M1528.7,1486.3l-.7-1,1.3-2.1c7.7-3.4,8.6-4,16.8-5.2-1.4,8.9-3.1,14.9-1.3,23.6l5.2,4.3c12.9-5.6,46.7-9.7,60.5-5.7,4.8,4.3,5,5.4,5.2,12,2.3,59.5-61.3-4.9-70.8,36.9-1.3,6-1.1,11.9,2.6,16.9,8.5,5.4,21.1,4.6,30.4,2,12.5-3.5,15.2-3.5,27.9-1.7,4.3-4.9,8.2-9.8,13.6-13.4,6.4-3,7.8-4.4,14.9-3.5,10.9,8.9,3,27.5-2.6,37.9-2.5,4.3-5.4,9.7-8.1,13.7-16.1,0-106.5,2.2-116-1.5-3.8-9.3,5.1-68.5,7-82.5l3.9,1.3c1.2,3.7,1.8,5.5,2.5,9.3-.3-10.2-1.5-26.1.8-36,.8-3.6,2.4-3.1,7.1-5.6Z"/>
        <path class="cls-41" d="M1528.7,1486.3c6.9,12.3,6.2,51.1-5.2,58.4-3.3-5.2-2.5-9.9-2.6-16.8-.3-10.2-1.5-26.1.8-36,.8-3.6,2.4-3.1,7.1-5.6Z"/>
        <path class="cls-42" d="M1619.3,1552.9c6.4-3,7.8-4.4,14.9-3.5,10.9,8.9,3,27.5-2.6,37.9-3.8-1.1-2.9-1-6.4-3.1-4-8.6-4.3-21.6-5.9-31.4Z"/>
        <path class="cls-13" d="M1544.7,1501.7l5.2,4.3c3.8,5.7,5,7.1,7.1,13.9-1.4,6.4,0,3.4-5.6,8.4-7.9.3-4.8-1.2-10.1,3l-3-3.8c1.2-8.4,1.7-19.4,6.4-25.7Z"/>
        <path class="cls-6" d="M1541.3,1531.2l.4,1.7c-2,6.6-1.6,9.6-6.3,14.8l-1.7-1.3c.6-7.7,2.2-11.7,4.6-19.1l3,3.8Z"/>
        <path class="cls-7" d="M1457.9,1454.3c3.6,0,6.1.8,9.2-1.1,40.1-24.7,45.9,47.4,47.5,64-1.9,13.9-10.9,73.1-7,82.5-12.6-.4-43.4,11-48.9-4.6,1.2-7.5,6.3-11.4,11.7-17.2,3.5-22.1,3.6-89.5.4-114-.6-4.6-8.4-7.5-12.9-9.6Z"/>
        <path class="cls-42" d="M1600.8,1475c4.2.2,8.5.2,12.8.2,16.3-11.4-5.1-21.6,12.1-30.4,6.6,11.1,17.6,29.6,2.4,39.5-8.7,2.2-21.7-2.7-27.3-9.3Z"/>
        <path class="cls-42" d="M3019.7,1456.2c-3.4-4.4-5.1-5.3-5.2-10.7l2.7-2.6c20.1-4.2,154.6-5.3,166.4,1.4,6.3,12.1,15,30.3.3,40.1-12.4,2.5-18.7-5.9-24.7-15.1-16.9,1.5-42.7,3.1-58.7,6l-.8,26.8c18.8,14.2,50.4-8.5,65.3-4.5,8.5,8.1,9.4,27.8,2.4,36.7-17.8,10.6-60.7-16.1-66.3,4.8-10.7,40.3,42.6,30.3,64.2,22.5,11.7-7,20.5-14.7,33.5-12,14.3,12.2-6.7,38.8-15.5,49.9l-4.4,2.3c-14.8,4-60.9.2-78.7-.7-30.9-2-63.7,13.1-86.3-1-3.9-10.7,5.8-10.9,11.4-23.4,8.1-17.9,6.2-41,6.2-60.5,0-17.9,1.3-47.1-11.8-60Z"/>
        <path class="cls-7" d="M3019.7,1456.2c56.9-52.3,44,82.2,44,106.2l4.5-7.6c3.2,4.4,2,3,3.6,7.5,11.4,32.5,76.9,38.2,107.1,39.4-14.8,4-60.9.2-78.7-.7-30.9-2-63.7,13.1-86.3-1-3.9-10.7,5.8-10.9,11.4-23.4,8.1-17.9,6.2-41,6.2-60.5,0-17.9,1.3-47.1-11.8-60Z"/>
        <path class="cls-13" d="M3098.7,1478.2c-.3,9.4,0,14.5,1,23.9,18.8,14.2,50.4-8.5,65.3-4.5,8.5,8.1,9.4,27.8,2.4,36.7-17.8,10.6-60.7-16.1-66.3,4.8-10.7,40.3,42.6,30.3,64.2,22.5,6.8,3.8,15.3,9.7,11.1,18.3-17.9,8.5-85.8-6.4-98.5-28.4l.6-16.3c-1-13.6-.3-33.1-.2-47,6.3-3.3,14-6.7,20.5-9.8Z"/>
        <path class="cls-41" d="M3078.4,1535.1c2.2-12.1-.2-37.3,5.9-45.3,12,8.6,6.6,46.2.3,58.3-3.9,2.8-2.4,2.2-6.8,3.4l.6-16.3Z"/>
        <path class="cls-27" d="M3019.7,1456.2c-3.4-4.4-5.1-5.3-5.2-10.7l2.7-2.6c20.1-4.2,154.6-5.3,166.4,1.4-29.8,5.5-90.1-7.7-112.8,6.4l-1.5,3.6c2.7,6.1,7.4,8.6,12.9,12.7-11.7,27.3-15.7,61.3-5.9,89.9,9.5,27.5,46.3,25.3,69.5,30.2,13.5,2.9,24.8,7.4,37.5,12.3l-4.4,2.3c-30.2-1.3-95.8-6.9-107.1-39.4-1.6-4.5-.3-3-3.6-7.5l-4.5,7.6c0-24.1,12.9-158.6-44-106.2Z"/>
        <path class="cls-42" d="M2874.4,1596.8c-33.5,12.2-35.4,10.9-48.4-22.4-10.4-26.6-22.8-54.8-36.7-79.8-9.9-17.8-25.7-34-36.1-52,12.9-5.8,91.1-3.7,104.7.5l-.2,2.3c-.3,4.2-3.8,18.3-3,20.6,4.3,13.5,17.6,57.5,32.9,58.9,4-3.2,4.2-6.5,5.5-11.5,5.3-16.9,14.1-32.4,19.2-50.5-2.9-6.3-6.6-12.5-6.8-19.3,9.1-7.1,72.4-4.2,85.4-1.4-.3,5.6-28.1,38.8-33.8,44.4-25.5,25.2-28.4,109.2-61.3,118.5-9.2-2.1-13-4.3-21.4-8.3Z"/>
        <path class="cls-7" d="M2874.4,1596.8c-33.5,12.2-35.4,10.9-48.4-22.4-10.4-26.6-22.8-54.8-36.7-79.8-9.9-17.8-25.7-34-36.1-52,12.9-5.8,91.1-3.7,104.7.5h-2.1c-16.6.7-43.7-2.1-57.6-.2l.3,1.7c21,10.9,17.7,38.2,28.7,57.1,17.6,30.3,44.7,55.4,56.7,88.7,2.6,7.4,5.7,10.3,11.9,14.7-9.2-2.1-13-4.3-21.4-8.3Z"/>
        <path class="cls-7" d="M2912.3,1462.9c-2.9-6.3-6.6-12.5-6.8-19.3,9.1-7.1,72.4-4.2,85.4-1.4-12,.2-50.6-.2-59.2,1.7,4.7,7.3,4.9,6.8,3.3,15.6-5.2,29.2-20.2,38.5-41.9,53.9,5.3-16.9,14.1-32.4,19.2-50.5Z"/>
        <path class="cls-13" d="M2922.5,1502.5l2.7,2.5c3,19.5-29.6,43.7-45.2,51.3-4.7-5.9-3.7-2.7-4.5-9.3,5.1-7.2,17.4-9.8,21.3-14,8.2-8.9,17.7-21.1,25.6-30.5Z"/>
        <path class="cls-41" d="M2831.3,1488.4c15.2,5.7,17.2,13.1,20.7,28.1-13.8-5.5-16.7-14.4-20.7-28.1Z"/>
        <path class="cls-13" d="M2947.8,1470.1c2,2,1.1.6,1.2,4.8-3.9,7.8-8.3,11.4-14.4,17.6l-1.2-1.9c.8-9.4,7.6-14.2,14.4-20.5Z"/>
        <path class="cls-42" d="M2235.1,1447.4c19.5-5.7,37.6-11.1,54.4-12.5,7.7-.3,17,.5,26.7,1.2,12.3,2.3,35.4,2.5,46.5,9.7,1.2,4.8,1.4,4.8,1,9.7l-2.6,22.2c-17.2,13.2-51.2,1-70.8-4.1-11.8.6-14.4,0-23.3,7.7-28.3,46.8-9.5,77.5,46.4,81,12.9.8,45.3-5.7,54.4,0-1.5,12-33.8,37.8-44.8,39.6-143.6,24.9-191.6-121.5-87.9-154.5Z"/>
        <path class="cls-7" d="M2323,1601.9c-143.6,24.9-191.6-121.5-87.9-154.5l2.4,1.1c2.9,1.3,5.2,2.3,8.1,3.4l.7,2.6c-5.9,9-21.7,30.8-24.7,39.4-17,50.2,32.7,90.4,75,104.7,9.9,3.4,16.7,2.1,26.4,3.3Z"/>
        <path class="cls-13" d="M2348.1,1577c-1.7.4-3.3.7-4.9,1-117.6,23.5-165.3-99.2-47.6-121.2-7.3,4-12.5,6-19.5,10.9l1,2.1,13.2,3.8c-11.8.6-14.4,0-23.3,7.7,1.7-6.3,2.3-3.8.4-8.5-1.3.1-2.9.1-4,.9-25.2,18.6-36.5,43.6-17.1,71.2,27.7,39.3,67.3,24,101.8,32.1Z"/>
        <path class="cls-13" d="M2361,1477.6l-1.4-8.1c-5.2-4.8-30.2-8.2-38.7-9.9l1.3-1.4c15.2-3.3,25.8-2.8,41.4-2.8l-2.6,22.2Z"/>
        <path class="cls-27" d="M1292.2,1485.4c-8.4-20.2-38,6.4-56.7,1.2-8.5-9.9,4.1-36.5,10.8-45.9,5.3-2.9,28.7-3.5,34.9-2.7,20.7,2.4,136.9-3.1,146.9,4.6l-2.8,18.3c-2.8,32.1-26.6,20.5-49.8,15-7.6-1.2-6.4-2.3-11,.9-2.1,6.9-1.4,12.5-1.2,19.8,0,20.1-.4,40.3.7,60.4,1,18.5,17.7,33.6,8.9,44.9-10.2,4.2-22.1,1.2-33.1-.5-18-2.3-54,9.6-58.8-8.8,1.5-8.6,5.7-12.6,11.1-19.7.8-28,2.2-59.9,0-87.5Z"/>
        <path class="cls-42" d="M1378,1446.6c-9.8,0-21.6.5-31.1-1.1l6-.2-.8-.7c25.9-2.2,50.5-.5,76-2l-2.8,18.3c-2.8,32.1-26.6,20.5-49.8,15-7.6-1.2-6.4-2.3-11,.9-2.1,6.9-1.4,12.5-1.2,19.8,0,20.1-.4,40.3.7,60.4,1,18.5,17.7,33.6,8.9,44.9-10.2,4.2-22.1,1.2-33.1-.5-10.6-14.7-17-47.2-17.4-64.8,2.6-13.5,1.5-46.9,1.7-62.5,18.6-10.2,34.4-19.1,53.9-27.4Z"/>
        <path class="cls-13" d="M1338.2,1563.4c-9.8-32-19.7-85.4,23.8-95.8,8.2-2,58.6-17.6,61.9-16.1l1.5,9.4c-2.8,32.1-26.6,20.5-49.8,15-7.6-1.2-6.4-2.3-11,.9-2.1,6.9-1.4,12.5-1.2,19.8-.4-8.7,1-10.9-3-16.9l-4.1.3c-7.5,6.3-10.8,12.4-16.2,20.5,1.4,28.4,2.9,34.5-1.8,62.8Z"/>
        <path class="cls-42" d="M1375.5,1475.9l.7-3c9.7-8.8,35.9-11.2,49-12-2.8,32.1-26.6,20.5-49.8,15Z"/>
        <path class="cls-7" d="M1292.2,1485.4l1.2-6.5c24.9-7.7,26.6,23.6,28.1,40.7.5,5.6.8,11.2.9,16.9.4,17.7,6.8,50.1,17.4,64.8-18-2.3-54,9.6-58.8-8.8,1.5-8.6,5.7-12.6,11.1-19.7.8-28,2.2-59.9,0-87.5Z"/>
        <path class="cls-26" d="M2448.4,1475.5c-18,3.1-35.2,14.4-50.9,11-11.1-9.6.8-33.4,8.1-43,13.3-8.1,152.9-.5,178.5-2.3,11.8-.9,4.6,23.1,2.9,29.8-15.3,18.9-24.6,13-44.2,4.4-8.8-.6-6.7-1.8-13.2,1.9-7.2,11.2-2.4,43.6-4.3,62.5.2,13.8,0,25.3,3,38.7,5.6,4.7,11.1,8,13.2,14.9-.7,3.3-.7,4.7-2,7.8-10.1.9-15.2,1.3-24.9-1.2-20.7-3.2-60.5,8.9-74.3-4.9v-5c3.6-7.4,8.7-10,15.5-14.9-1-17.7-1.9-34.9-1.9-52.6,0-13.8,1.7-30.9.7-44.2l-6.1-3Z"/>
        <path class="cls-7" d="M2448.4,1475.5c5.5-6.8,16.7,3.7,25.6,6.3,6.9,3.6,5.4,5.5,10.4,13.8l-2.7-7.4c8.2,16,7.4,35.2,3,52.2,2.7,16.3,4.7,41.1,14.8,54.6.8,1.1,11.1,2.4,15.1,5.2-20.7-3.2-60.5,8.9-74.3-4.9v-5c3.6-7.4,8.7-10,15.5-14.9-1-17.7-1.9-34.9-1.9-52.6,0-13.8,1.7-30.9.7-44.2l-6.1-3Z"/>
        <path class="cls-42" d="M2521,1480.2c1.1,15.3,2.4,45.6,4.3,59.6.2,13.8,0,25.3,3,38.7,5.6,4.7,11.1,8,13.2,14.9-.7,3.3-.7,4.7-2,7.8-15.6-2.9-36.5-33.6-45.3-46.6l5.8-1.5c6.4-8.5,2.8-32.1,2.2-44.8,6.5-13.3,8.7-16.6,18.8-28.1Z"/>
        <path class="cls-42" d="M2542.7,1475.4c5.5-9.1,31.9-16.3,41.7-11.6l2.4,7.1c-15.3,18.9-24.6,13-44.2,4.4Z"/>
        <path class="cls-13" d="M2494.2,1554.7c.4-14.8.6-41.1,4.7-54.8l1.9-.7,1.5,9.2c.5,12.7,4.2,36.3-2.2,44.8l-5.8,1.5Z"/>
        <path class="cls-42" d="M848.7,1439.5c19.1-.8,74.6-3.8,90.1,2.6,5.4,8.7-7.6,24.8-8.4,37.6-1.8,30.1-6.3,68.7.8,97.8,1,3.4,9.1,10.8,9.9,18.8-3,5.1-.9,3.3-6.8,5.4-22.3,6.6-26.9,0-48.7-1.4-13.5-.9-35.4,9.1-48.2,1-4.4-14.6,10.1-15.8,11.8-22.9,7.9-32.3,12.2-90.5-5.2-119.8-4.7-7.9-6.4-5.8-5.1-15.3,5.2-4.5,2.2-3,9.8-3.8Z"/>
        <path class="cls-7" d="M934.3,1601.7c-22.3,6.6-26.9,0-48.7-1.4-13.5-.9-35.4,9.1-48.2,1-4.4-14.6,10.1-15.8,11.8-22.9,7.9-32.3,12.2-90.5-5.2-119.8-4.7-7.9-6.4-5.8-5.1-15.3,5.2-4.5,2.2-3,9.8-3.8,14.4,1.7,30.9,3.3,45,6-10,59.2-16.3,105.9,16.4,156.1,7.1-.1,17.2-.5,24.1,0Z"/>
        <path class="cls-41" d="M897.2,1483.6l4.4,2.7c5.1,13.5,2.7,54.5.4,69.1l-3.6-2.4c-6.7-14.7-2.5-52.1-1.2-69.3Z"/>
        <path class="cls-7" d="M2635.7,1467.8c-6.4-5.3-11.4-8.3-14.1-16,1.5-15.1,20.4-13.3,32.4-13.2,20.5.2,41.4.5,61.9,2.2,7.8,1.5,5-.3,9.9,4.1,0,9.7-14.4,24-15.1,32.8-1.9,25.3-2.5,74.4-.4,98.9,7.3,7.7,18.9,16.1,8.8,25.6-9.5,3.2-17.9,1.3-27.9-.1l-2-.2c-21.4-1.5-45.7,5.7-64.6-1.2-2.1-.7-2-4.1-2.4-6.3,2.1-6.4,6.5-9,11.7-13.5,5.5-32,7.2-82.1,1.7-113.1Z"/>
        <path class="cls-42" d="M2715.8,1440.8c7.8,1.5,5-.3,9.9,4.1,0,9.7-14.4,24-15.1,32.8-1.9,25.3-2.5,74.4-.4,98.9,7.3,7.7,18.9,16.1,8.8,25.6-9.5,3.2-17.9,1.3-27.9-.1-5.3-18.7-15.7-23.3-19.1-46.3-4.5-30.7,2.5-75.4,1.3-107.3-.2-4.4-3.9,1.3-6.4-5.5,13-2.8,33.3-.2,48.9-2.2Z"/>
        <path class="cls-41" d="M2682.5,1482.6l2.9,3.5c2.9,13.7,3.3,57.8-2,71-10.9-13.3-6.8-59.2-.9-74.5Z"/>
        <path class="cls-41" d="M2531.4,1456.6l-3.5,2.8c-13.7,2.6-57.9,2.2-70.9-3.4,13.5-10.6,59.3-5.6,74.5.6Z"/>
        <path class="cls-30" d="M2708.7,307.7c1.1-11.4,1.2-20.3,1.3-31.7,10.4,28.2,14.9,46.6,1.2,76-24.3,52.1-53.9,72.9-46,133.2l-5.4-.3c-4.8-3.2-7.5-11-12.8-17.5l-1.1-1.3c-1.9-5.5-3.6-14.1-5-20.1.8-14.7,1.9-22,11.7-34,11.9-14.7,23.5-28.1,34.2-43.8,13.1-20.1,17.7-37.4,21.7-60.5Z"/>
        <path class="cls-19" d="M2646.1,466l1.1,1.3c5.2,6.5,8,14.3,12.8,17.5l5.4.3c8.3,22.8,16.8,38.4,31.8,57.6,1.9,2.5,1.4,1.9,2.8,5-2-1.1-4.2-2.2-5.8-3.7h-2.4c0,0-2-1.9-2-1.9,1.2,6.1,2.5,6.6.5,11.3-9.1-19.1-18.5-39.4-31.3-56.3l-1.2-2.4c-4.8-10.1-8.9-17.7-11.6-28.7Z"/>
        <path class="cls-15" d="M2195.6,429.6c4.6,4.3,8.4,13.8,12.1,19.4,12.8,19.6,31.6,29,51.8,39.1,4.7,2,3.9,1.2,7.6,4.3-4.6,2.2-3.6,2.4-8.2,2.7-8.9-6.8-39-13.8-44.3-22.7l3.2-.5c2.6-6.3-22.5-26.1-22.2-42.4Z"/>
        <path class="cls-16" d="M2215.7,870.8c8.5,1.1,8.9,1.2,17.1-.6l-10.6,71.3c-2-12.9,3-33.5-5.3-41.1,1.4-12.5,3-17.9-1.2-29.6Z"/>
        <path class="cls-18" d="M3207.6,370.8c7.7-8,12.3-12.4,18.7-21.7,2,5.2,3.2,9.9,7.1,13.8-7.2,4.9-12.4,8.6-19.1,14.1-9.4,7.7-19.1,16.4-29.5,22.4l-3.2-1c7.8-9.9,17.1-18.7,26-27.6Z"/>
        <path class="cls-17" d="M3203.3,473c7.7-4.4,15.5-10.8,22.7-16.2-.6,8.2-2,5.2,1.9,10.3,5.3.4,9.8.6,15.1.7-15.1,2.5-47,21.3-56.5,19.2v-.3h1.5l2.7-5-1.1.4c5.3-4,8-5.9,13.7-9.2Z"/>
        <path class="cls-21" d="M2815.9,321.5c2.4,8.3,3.9,17.1,9.8,22.8-4,10.3-16,33.8-25.5,39,.6-5.3,6.8-18.5,9.2-24.1,5.2-13.3,5.5-23.8,6.4-37.7Z"/>
        <path class="cls-20" d="M2218.2,356.5c7.6,9,14,19.3,21.5,27.7l1,2-2.3,2.4c-5.7-1.8-27.1-21.5-33.3-26.8,5.4.7,5.4,1,10.5-.4l2.5-4.9Z"/>
        <path class="cls-12" d="M3074.6,429.6c-46.3.6-66,92.2-85.7,123.7-8,12.7-61.9,64.6-48.8,77,6.3-.9,4.9-1.3,10.6-7,.4-.6.7-1.3,1.1-1.9l1.9-3.2c18.2-30.4,52.4-41.6,63.9-62,26.3-46.4,18.3-67.8,55-113.4-5.9,3.5-10,6.8-16.5,5.9v-3.2c5-8.4,10.1-10.6,18.5-15.9Z"/>
        <path class="cls-12" d="M3593,1122.9l5.4-2.4c7.4,6.8,9.4,53.4,10.2,64.9-16.7,23-30.1-9-31.7-25.4,6.3-16.5,8-21.3,16.1-37.2Z"/>
        <path class="cls-12" d="M424.7,1392.6h0c7.5-1.8,15.3,1.6,19,8.5,10.3,19.3,14.8,57.2,17,77.8.7,6.8-2.7,13.4-8.7,16.6-35.6,18.9-64.3-12.2-73.4-35.8-2-5.2-1.4-11.1,1.7-15.7,12.7-18.8,18.6-27.1,35.8-46.3,2.3-2.5,5.3-4.3,8.6-5.1Z"/>
      </g>
    </g>
  </g>
</svg>